<svg width="24" height="25" viewBox="0 0 24 25" fill="none" xmlns="http://www.w3.org/2000/svg">
<path d="M12.0024 2.47044C12.1439 2.26758 12.3256 2.09606 12.5364 1.96658C12.7471 1.8371 12.9822 1.75243 13.2271 1.71786C13.472 1.6833 13.7214 1.69957 13.9598 1.76567C14.1981 1.83177 14.4203 1.94627 14.6124 2.10204L18.5364 5.28804C18.887 5.57256 19.1179 5.97846 19.1832 6.42523C19.2486 6.87201 19.1436 7.32702 18.8892 7.70004H17.4252L17.8932 7.02924C17.9803 6.90499 18.0171 6.75234 17.9962 6.60205C17.9752 6.45175 17.8981 6.31497 17.7804 6.21924L15.7596 4.58004L13.6044 7.70004H12.144L14.8248 3.82164L13.8552 3.03444C13.7912 2.9825 13.7171 2.9443 13.6377 2.92224C13.5583 2.90017 13.4752 2.89471 13.3935 2.9062C13.3119 2.91768 13.2335 2.94587 13.1632 2.98899C13.093 3.03211 13.0324 3.08925 12.9852 3.15684L9.81598 7.69884H8.35198L12.0024 2.47044ZM16.2 14.9C16.0408 14.9 15.8882 14.9633 15.7757 15.0758C15.6632 15.1883 15.6 15.3409 15.6 15.5C15.6 15.6592 15.6632 15.8118 15.7757 15.9243C15.8882 16.0368 16.0408 16.1 16.2 16.1H17.4C17.5591 16.1 17.7117 16.0368 17.8242 15.9243C17.9368 15.8118 18 15.6592 18 15.5C18 15.3409 17.9368 15.1883 17.8242 15.0758C17.7117 14.9633 17.5591 14.9 17.4 14.9H16.2ZM5.39998 6.50004H8.00278L7.16278 7.70004H5.39998C5.24085 7.70004 5.08823 7.76326 4.97571 7.87578C4.86319 7.9883 4.79998 8.14091 4.79998 8.30004C4.79998 8.45917 4.86319 8.61178 4.97571 8.72431C5.08823 8.83683 5.24085 8.90004 5.39998 8.90004H18C18.6365 8.90004 19.2469 9.1529 19.697 9.60298C20.1471 10.0531 20.4 10.6635 20.4 11.3V18.5C20.4 19.1366 20.1471 19.747 19.697 20.1971C19.2469 20.6472 18.6365 20.9 18 20.9H6.59998C5.80433 20.9 5.04126 20.584 4.47866 20.0214C3.91605 19.4588 3.59998 18.6957 3.59998 17.9V8.30004C3.59998 7.82265 3.78962 7.36481 4.12718 7.02725C4.46475 6.68968 4.92259 6.50004 5.39998 6.50004ZM4.79998 17.9C4.79998 18.3774 4.98962 18.8353 5.32718 19.1728C5.66475 19.5104 6.12259 19.7 6.59998 19.7H18C18.3182 19.7 18.6235 19.5736 18.8485 19.3486C19.0735 19.1235 19.2 18.8183 19.2 18.5V11.3C19.2 10.9818 19.0735 10.6766 18.8485 10.4515C18.6235 10.2265 18.3182 10.1 18 10.1H5.39998C5.18878 10.0992 4.98878 10.0652 4.79998 9.99804V17.9Z" fill="#429539"/>
</svg>
