<svg width="21" height="20" viewBox="0 0 21 20" fill="none" xmlns="http://www.w3.org/2000/svg">
<path d="M3.45671 17.4483H17.54C17.6505 17.4483 17.7565 17.4044 17.8347 17.3263C17.9128 17.2482 17.9567 17.1422 17.9567 17.0317C17.9567 16.9212 17.9128 16.8152 17.8347 16.737C17.7565 16.6589 17.6505 16.615 17.54 16.615H3.45671C3.3462 16.615 3.24022 16.6589 3.16208 16.737C3.08394 16.8152 3.04004 16.9212 3.04004 17.0317C3.04004 17.1422 3.08394 17.2482 3.16208 17.3263C3.24022 17.4044 3.3462 17.4483 3.45671 17.4483ZM8.59171 14.3167C8.94352 14.2177 9.26459 14.0314 9.52504 13.775L17.475 5.82501C17.7473 5.55169 17.9001 5.18162 17.9001 4.79584C17.9001 4.41006 17.7473 4.04 17.475 3.76668L16.6917 2.99168C16.4143 2.72727 16.0458 2.57977 15.6625 2.57977C15.2793 2.57977 14.9108 2.72727 14.6334 2.99168L6.68337 10.9333C6.42701 11.1924 6.24311 11.5143 6.15004 11.8667L5.53337 14.1667C5.50438 14.2718 5.50376 14.3826 5.53157 14.488C5.55938 14.5934 5.61464 14.6896 5.69171 14.7667C5.80981 14.8824 5.96803 14.9481 6.13337 14.95L8.59171 14.3167ZM8.93337 13.1833C8.77969 13.3397 8.58688 13.4519 8.37504 13.5083L7.56671 13.725L6.73337 12.8917L6.95004 12.0833C7.00758 11.872 7.11965 11.6794 7.27504 11.525L7.59171 11.2167L9.25004 12.875L8.93337 13.1833ZM9.84171 12.2833L8.18337 10.625L13.7917 5.01668L15.45 6.67501L9.84171 12.2833ZM16.8834 5.24168L16.0417 6.08334L14.3834 4.42501L15.225 3.57501C15.3422 3.45797 15.5011 3.39223 15.6667 3.39223C15.8323 3.39223 15.9912 3.45797 16.1084 3.57501L16.8834 4.35834C16.9996 4.47596 17.0648 4.63465 17.0648 4.80001C17.0648 4.96537 16.9996 5.12406 16.8834 5.24168Z" fill="#F37421"/>
</svg>
