<svg width="36" height="36" viewBox="0 0 36 36" fill="none" xmlns="http://www.w3.org/2000/svg">
<rect width="36" height="36" rx="18" fill="#429539"/>
<path fill-rule="evenodd" clip-rule="evenodd" d="M18 7.25C18.1989 7.25 18.3897 7.32902 18.5303 7.46967C18.671 7.61032 18.75 7.80109 18.75 8V9.282C20.804 9.45866 22.7296 10.3549 24.1874 11.8126C25.6451 13.2704 26.5413 15.196 26.718 17.25H28C28.1989 17.25 28.3897 17.329 28.5303 17.4697C28.671 17.6103 28.75 17.8011 28.75 18C28.75 18.1989 28.671 18.3897 28.5303 18.5303C28.3897 18.671 28.1989 18.75 28 18.75H26.718C26.5413 20.804 25.6451 22.7296 24.1874 24.1874C22.7296 25.6451 20.804 26.5413 18.75 26.718V28C18.75 28.1989 18.671 28.3897 18.5303 28.5303C18.3897 28.671 18.1989 28.75 18 28.75C17.8011 28.75 17.6103 28.671 17.4697 28.5303C17.329 28.3897 17.25 28.1989 17.25 28V26.718C15.196 26.5413 13.2704 25.6451 11.8126 24.1874C10.3549 22.7296 9.45866 20.804 9.282 18.75H8C7.80109 18.75 7.61032 18.671 7.46967 18.5303C7.32902 18.3897 7.25 18.1989 7.25 18C7.25 17.8011 7.32902 17.6103 7.46967 17.4697C7.61032 17.329 7.80109 17.25 8 17.25H9.282C9.45866 15.196 10.3549 13.2704 11.8126 11.8126C13.2704 10.3549 15.196 9.45866 17.25 9.282V8C17.25 7.80109 17.329 7.61032 17.4697 7.46967C17.6103 7.32902 17.8011 7.25 18 7.25ZM18 10.75C17.0479 10.75 16.1052 10.9375 15.2255 11.3019C14.3459 11.6662 13.5467 12.2003 12.8735 12.8735C12.2003 13.5467 11.6662 14.3459 11.3019 15.2255C10.9375 16.1052 10.75 17.0479 10.75 18C10.75 18.9521 10.9375 19.8948 11.3019 20.7745C11.6662 21.6541 12.2003 22.4533 12.8735 23.1265C13.5467 23.7997 14.3459 24.3338 15.2255 24.6981C16.1052 25.0625 17.0479 25.25 18 25.25C19.9228 25.25 21.7669 24.4862 23.1265 23.1265C24.4862 21.7669 25.25 19.9228 25.25 18C25.25 16.0772 24.4862 14.2331 23.1265 12.8735C21.7669 11.5138 19.9228 10.75 18 10.75ZM18 15.75C17.4033 15.75 16.831 15.9871 16.409 16.409C15.9871 16.831 15.75 17.4033 15.75 18C15.75 18.5967 15.9871 19.169 16.409 19.591C16.831 20.0129 17.4033 20.25 18 20.25C18.5967 20.25 19.169 20.0129 19.591 19.591C20.0129 19.169 20.25 18.5967 20.25 18C20.25 17.4033 20.0129 16.831 19.591 16.409C19.169 15.9871 18.5967 15.75 18 15.75ZM14.25 18C14.25 17.0054 14.6451 16.0516 15.3483 15.3483C16.0516 14.6451 17.0054 14.25 18 14.25C18.9946 14.25 19.9484 14.6451 20.6517 15.3483C21.3549 16.0516 21.75 17.0054 21.75 18C21.75 18.9946 21.3549 19.9484 20.6517 20.6517C19.9484 21.3549 18.9946 21.75 18 21.75C17.0054 21.75 16.0516 21.3549 15.3483 20.6517C14.6451 19.9484 14.25 18.9946 14.25 18Z" fill="white"/>
</svg>
