<svg width="216" height="196" viewBox="0 0 216 196" fill="none" xmlns="http://www.w3.org/2000/svg">
<path d="M36.3718 36.311C45.5037 35.6731 52.0769 39.5988 59.1687 44.8628L60.5955 45.9321C72.3202 54.8534 85.497 62.5855 99.8689 66.5737V66.5728C114.503 70.6492 130.13 71.27 145.431 71.27H145.435C150.666 71.2335 155.879 71.1055 160.993 70.9956C164.466 70.922 168.217 70.4893 172.057 70.0269C175.907 69.5634 179.85 69.0694 183.744 68.8638C191.536 68.4522 199.025 69.2031 205.012 73.5806C209.655 77.3088 212.778 82.6036 213.795 88.4712L213.797 88.48L213.798 88.4888C215.92 98.5543 215.795 111.06 212.968 122.684C210.183 134.131 204.795 144.661 196.424 151.181L196.023 151.488C186.628 158.562 174.94 161.52 162.834 162.284C150.727 163.048 138.243 161.615 127.288 159.945L124.946 159.583C100.751 155.751 76.689 149.228 54.7429 138.264H54.7419C44.9294 133.385 34.2688 127.183 25.1189 119.506C15.9673 111.829 8.35342 102.698 4.59253 91.9663L4.59155 91.9653C2.07656 84.8287 0.35303 76.1752 0.821045 67.9478C1.28879 59.7263 3.94031 51.9787 10.1218 46.5591C17.5476 40.4237 26.7457 36.8314 36.364 36.311H36.3718Z" fill="#F5F5F5" stroke="#ABABAB"/>
<path d="M108.738 188.131C127.255 188.131 144.015 188.599 156.141 189.355C162.206 189.734 167.102 190.183 170.476 190.681C172.166 190.93 173.455 191.189 174.312 191.45C174.744 191.582 175.038 191.706 175.213 191.813L175.215 191.815L175.213 191.817C175.038 191.925 174.744 192.049 174.312 192.181C173.455 192.442 172.166 192.701 170.476 192.95C167.102 193.448 162.206 193.897 156.141 194.275C144.015 195.032 127.255 195.5 108.738 195.5C90.2204 195.5 73.4607 195.032 61.3345 194.275C55.2693 193.897 50.3733 193.448 46.9995 192.95C45.3092 192.701 44.0208 192.442 43.1636 192.181C42.7314 192.049 42.4383 191.925 42.2632 191.817C42.2622 191.817 42.2612 191.816 42.2603 191.815C42.2611 191.815 42.2623 191.814 42.2632 191.813C42.4384 191.706 42.7315 191.582 43.1636 191.45C44.0208 191.189 45.3092 190.93 46.9995 190.681C50.3733 190.183 55.2693 189.734 61.3345 189.355C73.4608 188.599 90.2205 188.131 108.738 188.131Z" fill="#F5F5F5" stroke="#ABABAB"/>
<path d="M14.0793 30.476L37.8353 28.4658C40.7975 28.2062 43.759 28.9724 46.2242 30.6359C48.689 32.2991 50.5078 34.7586 51.3761 37.6028L74.1454 113.805L69.6866 121.79C68.5414 123.848 67.9759 126.178 68.0507 128.531C68.1255 130.885 68.8378 133.174 70.1114 135.155C71.3849 137.136 73.1721 138.734 75.2828 139.778C77.393 140.823 79.7475 141.275 82.0946 141.087L173.281 133.339" stroke="#ABABAB" stroke-width="3" stroke-linecap="round" stroke-linejoin="round"/>
<path d="M54.7754 49.17L160.764 40.1795C161.807 40.0901 162.858 40.2369 163.837 40.6088C164.819 40.9808 165.701 41.5686 166.423 42.3287C167.143 43.0889 167.686 44.0015 168.005 44.9992C168.325 45.9969 168.419 47.0538 168.274 48.0919L161.093 99.9346C160.875 101.49 160.139 102.927 159.006 104.014C157.873 105.101 156.405 105.775 154.843 105.929L74.1456 113.804L54.7754 49.17Z" fill="white" stroke="#ABABAB" stroke-width="3" stroke-linecap="round" stroke-linejoin="round"/>
<path d="M92.2366 158.557C96.9903 158.557 100.844 154.703 100.844 149.95C100.844 145.197 96.99 141.343 92.2366 141.343C87.4832 141.343 83.6296 145.197 83.6296 149.95C83.6296 154.703 87.4828 158.557 92.2366 158.557Z" fill="white" stroke="#ABABAB" stroke-width="3" stroke-linecap="round" stroke-linejoin="round"/>
<path d="M152.175 153.477C156.928 153.477 160.782 149.623 160.782 144.87C160.782 140.116 156.928 136.263 152.175 136.263C147.422 136.263 143.568 140.117 143.568 144.87C143.568 149.623 147.422 153.477 152.175 153.477Z" fill="white" stroke="#ABABAB" stroke-width="3" stroke-linecap="round" stroke-linejoin="round"/>
<path d="M32.9331 26.9053C34.5988 26.7641 36.0641 28.0013 36.2056 29.667C36.3465 31.3325 35.111 32.7971 33.4458 32.9385L11.0493 34.8389C9.38332 34.9801 7.91813 33.7445 7.77686 32.0791C7.63538 30.4136 8.87184 28.9481 10.5376 28.8066L32.9341 26.9062L32.9331 26.9053Z" fill="#C6C6C6" stroke="#ABABAB"/>
<path d="M99.3997 89.208C99.8368 85.8731 101.401 82.7875 103.832 80.4635C106.264 78.1395 109.417 76.7163 112.768 76.4305C116.12 76.1448 119.468 77.0131 122.258 78.8918C125.048 80.7702 127.112 83.5463 128.108 86.7592" stroke="#ABABAB" stroke-width="3" stroke-linecap="round" stroke-linejoin="round"/>
<path d="M128.346 65.8972C129.2 65.8973 129.893 66.5899 129.893 67.4441C129.893 68.2982 129.2 68.9909 128.346 68.991C127.492 68.991 126.799 68.2982 126.799 67.4441C126.799 66.5896 127.491 65.8972 128.346 65.8972Z" fill="#C6C6C6" stroke="#ABABAB"/>
<path d="M95.9097 68.6377C96.7641 68.6377 97.4565 69.3304 97.4565 70.1846C97.4565 71.0386 96.7637 71.7314 95.9097 71.7314C95.0553 71.7314 94.3628 71.0387 94.3628 70.1846C94.3628 69.3301 95.0552 68.6377 95.9097 68.6377Z" fill="#C6C6C6" stroke="#ABABAB"/>
<path d="M38.2556 147.41V155.286" stroke="#ABABAB" stroke-width="2" stroke-linecap="round" stroke-linejoin="round"/>
<path d="M34.3269 151.339H42.1847" stroke="#ABABAB" stroke-width="2" stroke-linecap="round" stroke-linejoin="round"/>
<path d="M163.815 1V8.85779" stroke="#ABABAB" stroke-width="2" stroke-linecap="round" stroke-linejoin="round"/>
<path d="M159.886 4.92896H167.744" stroke="#ABABAB" stroke-width="2" stroke-linecap="round" stroke-linejoin="round"/>
<path d="M70.783 24.4819V32.3397" stroke="#ABABAB" stroke-width="2" stroke-linecap="round" stroke-linejoin="round"/>
<path d="M66.8357 28.4109H74.7116" stroke="#ABABAB" stroke-width="2" stroke-linecap="round" stroke-linejoin="round"/>
<path d="M183.423 53.3732C184.452 53.3732 185.287 52.5386 185.287 51.5094C185.287 50.4801 184.452 49.6455 183.423 49.6455C182.394 49.6455 181.559 50.4801 181.559 51.5094C181.559 52.5386 182.394 53.3732 183.423 53.3732Z" fill="white" stroke="#ABABAB" stroke-width="5.1542" stroke-linecap="round" stroke-linejoin="round"/>
<path d="M113.763 33.5342C114.476 33.5343 115.054 34.1126 115.054 34.8252C115.054 35.538 114.476 36.1161 113.763 36.1162C113.05 36.1162 112.472 35.5381 112.472 34.8252C112.472 34.1125 113.05 33.5342 113.763 33.5342Z" fill="#C6C6C6" stroke="#ABABAB"/>
<path d="M125.788 163.498C126.5 163.498 127.079 164.076 127.079 164.789C127.078 165.501 126.5 166.079 125.788 166.08C125.075 166.08 124.497 165.501 124.497 164.789C124.497 164.076 125.075 163.498 125.788 163.498Z" fill="#C6C6C6" stroke="#ABABAB"/>
</svg>
