<svg width="240" height="211" viewBox="0 0 240 211" fill="none" xmlns="http://www.w3.org/2000/svg">
<path d="M32.3592 154.667C33.4605 154.667 34.3536 153.773 34.3536 152.672C34.3536 151.571 33.4605 150.678 32.3592 150.678C31.2578 150.678 30.3647 151.571 30.3647 152.672C30.3647 153.773 31.2578 154.667 32.3592 154.667Z" fill="#CFCFCF"/>
<path d="M161.684 71.3127C144.652 71.3127 127.313 70.6209 111.094 66.1031C95.1801 61.687 80.5688 53.1198 67.5446 43.2089C59.018 36.7579 51.2642 31.6091 40.1939 32.3828C29.3636 32.9689 19.0068 37.0132 10.6455 43.9213C-3.43675 56.2534 -1.32022 79.107 4.31659 95.1022C12.7823 119.258 38.5455 136.088 60.4424 146.975C85.7378 159.612 113.536 166.959 141.395 171.171C165.816 174.895 197.195 177.582 218.36 161.647C237.794 146.975 243.126 113.519 238.364 90.9303C237.208 84.2573 233.655 78.2361 228.372 73.9988C214.717 64.0068 194.347 70.6818 179.003 71.0072C173.304 71.1297 167.505 71.2721 161.684 71.3127Z" fill="#F5F5F5"/>
<path d="M136.215 129.244C148.075 129.244 157.689 138.859 157.689 150.72C157.689 162.579 148.075 172.194 136.215 172.194C124.354 172.194 114.739 162.58 114.739 150.72C114.739 138.859 124.354 129.244 136.215 129.244Z" fill="#EDEDED" stroke="#ABABAB" stroke-width="3"/>
<path d="M102.473 7.2825C103.743 6.99923 105.057 6.96898 106.339 7.19331C107.621 7.41763 108.846 7.8927 109.944 8.59017C111.043 9.28803 111.993 10.1957 112.741 11.2606C113.489 12.326 114.02 13.528 114.303 14.7981L117.974 31.2642L98.5887 35.5864L94.9172 19.1208C94.6331 17.8472 94.6037 16.53 94.8299 15.2445C95.0561 13.9594 95.5339 12.7317 96.236 11.6316C96.938 10.5314 97.8502 9.58125 98.9206 8.83478C99.9909 8.08869 101.198 7.5608 102.473 7.2825Z" fill="white" stroke="#ABABAB" stroke-width="3" stroke-linecap="round" stroke-linejoin="round"/>
<path d="M193.044 136.452L75.2367 162.704C74.5047 162.869 73.7429 162.838 73.0259 162.618C72.309 162.399 71.662 161.996 71.1483 161.448C70.6349 160.903 70.2724 160.231 70.0971 159.503C69.9218 158.772 69.9398 158.011 70.1492 157.291L70.6376 155.602C74.7076 141.173 78.2486 125.28 74.9924 110.628L68.0326 79.3696C62.1719 53.0976 77.9228 26.3368 104.052 19.8857C110.424 18.304 117.047 18.0127 123.534 19.029C130.02 20.0454 136.237 22.3487 141.819 25.8035C147.401 29.2584 152.235 33.795 156.039 39.1462C159.842 44.4975 162.537 50.5558 163.963 56.9636L171.147 89.2797C174.423 103.932 184.314 116.875 194.204 128.149L195.364 129.471C195.834 130.038 196.151 130.715 196.288 131.437C196.422 132.16 196.373 132.907 196.141 133.605C195.909 134.303 195.502 134.931 194.961 135.429C194.42 135.928 193.758 136.28 193.044 136.452Z" fill="white" stroke="#ABABAB" stroke-width="3" stroke-linecap="round" stroke-linejoin="round"/>
<path d="M105.904 116.307C105.872 111.553 107.469 106.933 110.429 103.214C113.389 99.4949 117.534 96.9021 122.174 95.867C126.813 94.8323 131.666 95.4176 135.927 97.5261C140.187 99.6342 143.596 103.138 145.587 107.455" stroke="#ABABAB" stroke-width="3" stroke-linecap="round" stroke-linejoin="round"/>
<path d="M142.25 77.999C143.569 77.999 144.639 79.069 144.639 80.3887C144.639 81.7085 143.569 82.7783 142.25 82.7783C140.93 82.7782 139.86 81.7086 139.86 80.3887L139.873 80.1445C139.995 78.9396 141.012 77.9991 142.25 77.999Z" fill="#BABABA" stroke="#ABABAB"/>
<path d="M97.439 87.9902C98.7587 87.9902 99.8285 89.0602 99.8286 90.3799C99.8286 91.6997 98.7587 92.7695 97.439 92.7695C96.1189 92.7694 95.0493 91.7 95.0493 90.3799C95.0494 89.0602 96.1193 87.9903 97.439 87.9902Z" fill="#BABABA" stroke="#ABABAB"/>
<path d="M151.326 4.21736C152.427 4.21736 153.32 3.32427 153.32 2.22294C153.32 1.1216 152.427 0.228516 151.326 0.228516C150.225 0.228516 149.332 1.1216 149.332 2.22294C149.332 3.32427 150.225 4.21736 151.326 4.21736Z" fill="#CFCFCF"/>
<path d="M32.3592 154.667C33.4605 154.667 34.3536 153.773 34.3536 152.672C34.3536 151.571 33.4605 150.678 32.3592 150.678C31.2578 150.678 30.3647 151.571 30.3647 152.672C30.3647 153.773 31.2578 154.667 32.3592 154.667Z" fill="#CFCFCF"/>
<path d="M206.434 50.3926V59.1431" stroke="#BABABA" stroke-width="2" stroke-linecap="round" stroke-linejoin="round"/>
<path d="M202.059 54.7676H210.81" stroke="#BABABA" stroke-width="2" stroke-linecap="round" stroke-linejoin="round"/>
<path d="M210.423 182.14V190.89" stroke="#BABABA" stroke-width="2" stroke-linecap="round" stroke-linejoin="round"/>
<path d="M206.048 186.515H214.798" stroke="#BABABA" stroke-width="2" stroke-linecap="round" stroke-linejoin="round"/>
<path d="M57.4304 17.2217V25.9722" stroke="#BABABA" stroke-width="2" stroke-linecap="round" stroke-linejoin="round"/>
<path d="M53.0552 21.5967H61.8057" stroke="#BABABA" stroke-width="2" stroke-linecap="round" stroke-linejoin="round"/>
<path d="M120.821 210.772C162.079 210.772 195.527 208.686 195.527 206.111C195.527 203.537 162.079 201.451 120.821 201.451C79.5626 201.451 46.1157 203.537 46.1157 206.111C46.1157 208.686 79.5626 210.772 120.821 210.772Z" fill="#F2F2F2"/>
<path d="M192.19 45.4264C192.184 51.6152 189.723 57.5491 185.348 61.9253C180.97 66.3016 175.036 68.7626 168.848 68.768C168.087 68.7676 167.326 68.727 166.569 68.6459L159.649 79.9402L157.492 65.7966C153.898 63.7949 150.895 60.8787 148.791 57.3431C146.686 53.8075 145.554 49.7789 145.507 45.6645C145.461 41.5504 146.504 37.4969 148.529 33.9154C150.555 30.3338 153.489 27.351 157.039 25.2693C160.588 23.1876 164.625 22.0813 168.738 22.0618C172.853 22.0426 176.9 23.1114 180.468 25.1598C184.037 27.2082 187 30.1635 189.058 33.7259C191.117 37.2883 192.198 41.3319 192.189 45.4463L192.19 45.4264Z" fill="white" stroke="#ABABAB" stroke-width="3" stroke-linecap="round" stroke-linejoin="round"/>
<path d="M158.876 47.7879C160.181 47.7879 161.237 46.731 161.237 45.4272C161.237 44.1237 160.181 43.0664 158.876 43.0664C157.572 43.0664 156.516 44.1233 156.516 45.4272C156.516 46.7314 157.572 47.7879 158.876 47.7879Z" fill="#C6C6C6" stroke="#C6C6C6" stroke-width="2" stroke-miterlimit="10"/>
<path d="M168.848 47.7879C170.152 47.7879 171.208 46.731 171.208 45.4272C171.208 44.1237 170.152 43.0664 168.848 43.0664C167.543 43.0664 166.487 44.1233 166.487 45.4272C166.487 46.7314 167.543 47.7879 168.848 47.7879Z" fill="#C6C6C6" stroke="#C6C6C6" stroke-width="2" stroke-miterlimit="10"/>
<path d="M178.819 47.7879C180.124 47.7879 181.18 46.731 181.18 45.4272C181.18 44.1237 180.124 43.0664 178.819 43.0664C177.515 43.0664 176.458 44.1233 176.458 45.4272C176.458 46.7314 177.515 47.7879 178.819 47.7879Z" fill="#C6C6C6" stroke="#C6C6C6" stroke-width="2" stroke-miterlimit="10"/>
</svg>
