<svg width="240" height="226" viewBox="0 0 240 226" fill="none" xmlns="http://www.w3.org/2000/svg">
<path d="M131.493 178.733H76.334V221.276H131.493V178.733Z" fill="#EBEBEB"/>
<path d="M117.673 220.976C117.597 220.976 117.536 211.493 117.536 199.798C117.536 188.099 117.598 178.618 117.673 178.618C117.749 178.618 117.811 188.099 117.811 199.798C117.811 211.493 117.75 220.976 117.673 220.976Z" fill="#E0E0E0"/>
<path d="M126.816 211.593H122.587V216.373H126.816V211.593Z" fill="#FAFAFA"/>
<path d="M99.4267 178.842H93.1611V187.92H99.4267V178.842Z" fill="#E0E0E0"/>
<path d="M99.4267 212.072H93.1611V221.149H99.4267V212.072Z" fill="#E0E0E0"/>
<path d="M231.575 168.067H162.026V221.709H231.575V168.067Z" fill="#EBEBEB"/>
<path d="M214.149 221.33C214.073 221.33 214.012 209.373 214.012 194.627C214.012 179.876 214.074 167.921 214.149 167.921C214.225 167.921 214.287 179.876 214.287 194.627C214.288 209.373 214.226 221.33 214.149 221.33Z" fill="#E0E0E0"/>
<path d="M225.678 209.499H220.346V215.526H225.678V209.499Z" fill="#FAFAFA"/>
<path d="M191.143 168.206H183.243V179.652H191.143V168.206Z" fill="#E0E0E0"/>
<path d="M191.143 210.104H183.243V221.55H191.143V210.104Z" fill="#E0E0E0"/>
<path d="M31.0277 169.645C33.8425 168.193 37.1572 168.004 40.2823 168.52C41.9611 168.798 43.7114 169.3 44.8537 170.561C45.996 171.822 46.2126 174.042 44.9008 175.125C44.1197 175.77 43.0308 175.868 42.0183 175.856C39.5721 175.828 36.8574 175.397 34.9032 176.869C33.7879 177.709 33.046 179.105 31.7125 179.518C30.4081 179.922 28.9364 179.152 28.2447 177.975C27.5531 176.798 27.5303 175.327 27.8523 174C27.8523 174 28.1923 171.108 31.0277 169.645Z" fill="#EBEBEB"/>
<path d="M24.5791 157.196C26.3002 159.654 29.6456 158.84 31.1968 157.34C32.748 155.84 33.4036 153.665 34.0004 151.591C35.3641 146.852 36.739 141.881 35.7248 137.056C35.4219 135.613 34.8822 134.174 33.8686 133.104C32.855 132.034 31.2958 131.397 29.8707 131.774C28.184 132.219 27.1354 133.871 26.3781 135.443C24.1512 140.063 22.9718 145.184 22.9543 150.312C22.9453 152.707 23.2281 155.218 24.5791 157.196Z" fill="#EBEBEB"/>
<path d="M19.8519 160.723C21.7208 158.505 22.0757 155.27 21.2437 152.492C20.4122 149.713 18.5332 147.349 16.3683 145.42C13.8294 143.157 10.8457 141.396 7.6375 140.268C6.37496 139.825 5.04358 139.474 3.71114 139.602C2.37869 139.729 1.03725 140.41 0.416042 141.595C-0.502793 143.347 0.377911 145.473 1.33117 147.207C3.00996 150.262 4.92919 153.184 7.06555 155.939C8.78406 158.155 10.7531 160.341 13.3724 161.342C15.9918 162.344 18.7128 162.226 20.1014 160.409" fill="#EBEBEB"/>
<path d="M24.4625 194.279C24.4948 194.281 24.5473 193.883 24.6182 193.162C24.6971 192.349 24.7967 191.328 24.9148 190.114C25.0567 188.831 25.2442 187.304 25.6006 185.642C25.956 183.984 26.512 182.187 27.2259 180.364C27.9652 178.552 28.8671 176.906 29.921 175.589C30.9675 174.266 32.1839 173.309 33.3278 172.757C34.468 172.193 35.4907 171.965 36.1971 171.863C36.91 171.79 37.3093 171.734 37.3093 171.702C37.3098 171.671 36.9094 171.665 36.1775 171.685C35.452 171.733 34.3875 171.917 33.1854 172.463C31.98 172.998 30.6889 173.971 29.5916 175.32C28.4853 176.665 27.5506 178.348 26.798 180.192C26.0714 182.047 25.5238 183.862 25.1844 185.556C24.846 187.247 24.6913 188.791 24.5902 190.084C24.4932 191.379 24.4567 192.427 24.4392 193.152C24.4228 193.876 24.4308 194.278 24.4625 194.279Z" fill="#E0E0E0"/>
<path d="M24.6721 191.933C24.688 191.932 24.6981 191.754 24.7023 191.415C24.7012 191.026 24.7002 190.535 24.6986 189.933C24.6949 188.646 24.6954 186.785 24.7643 184.486C24.8781 179.889 25.2737 174.941 26.0384 167.966C26.7624 161.406 27.7342 153.773 28.76 148.81C28.9798 147.682 29.2011 146.665 29.4098 145.776C29.6084 144.884 29.7784 144.116 29.942 143.494C30.0829 142.909 30.1973 142.432 30.2884 142.054C30.3625 141.723 30.3943 141.547 30.3789 141.542C30.3636 141.538 30.3022 141.705 30.1989 142.028C30.0861 142.401 29.9436 142.871 29.7683 143.449C29.5777 144.065 29.3817 144.828 29.1588 145.716C28.9258 146.602 28.6816 147.615 28.4406 148.742C27.426 153.24 26.3514 159.525 25.5798 166.517C24.8135 173.507 24.4687 179.872 24.438 184.481C24.4105 186.785 24.4597 188.651 24.5185 189.937C24.5551 190.54 24.5853 191.03 24.6091 191.419C24.635 191.757 24.6562 191.934 24.6721 191.933Z" fill="#E0E0E0"/>
<path d="M24.7028 179.657C24.7351 179.656 24.7293 179.106 24.6922 178.109C24.635 177.114 24.4984 175.676 24.2183 173.914C23.9212 172.156 23.506 170.07 22.854 167.802C22.5712 166.765 21.9071 164.281 20.2982 160.57C18.1783 155.541 15.2984 151.429 12.7924 148.883C12.2046 148.207 11.55 147.719 11.0268 147.242C10.7556 147.013 10.5162 146.784 10.2726 146.603C10.0274 146.434 9.79917 146.277 9.58786 146.131C8.7633 145.567 8.30149 145.27 8.28455 145.296C8.2104 145.397 10.1317 146.527 12.5573 149.108C14.9732 151.683 17.7726 155.767 19.8756 160.753C21.0481 163.458 21.8658 165.871 22.4463 167.918C23.1167 170.164 23.5616 172.23 23.8979 173.97C24.2177 175.713 24.4026 177.137 24.5143 178.123C24.6054 179.111 24.6716 179.658 24.7028 179.657Z" fill="#E0E0E0"/>
<path d="M12.0166 199.448L13.2463 216.3H34.8959L36.1256 199.448H12.0166Z" fill="#EBEBEB"/>
<path d="M38.7089 192.805H9.92529V199.447H38.7089V192.805Z" fill="#EBEBEB"/>
<path d="M9.92529 215.654V217.496H11.2779H38.2334V215.654H9.92529Z" fill="#E0E0E0"/>
<path d="M12.6036 220.532L11.2781 217.292H37.2025L35.6555 220.532H12.6036Z" fill="#E0E0E0"/>
<path d="M35.7236 204.955C35.7283 204.959 35.6939 205.012 35.623 205.11C35.5372 205.224 35.4307 205.365 35.2994 205.539C34.9922 205.932 34.5696 206.473 34.0384 207.153L33.9823 207.225L33.9277 207.15C33.135 206.054 32.0758 204.589 30.8291 202.864H31.0076C30.0861 204.169 29.0592 205.623 27.9572 207.184L27.8613 207.319L27.7543 207.192C26.6284 205.852 25.4056 204.398 24.1367 202.887L24.3454 202.885C24.2824 202.963 24.2146 203.049 24.1463 203.134C23.0241 204.541 21.9384 205.903 20.9115 207.19L20.8035 207.325L20.7039 207.184C19.6056 205.63 18.5798 204.179 17.6519 202.866L17.8293 202.874C16.3253 204.588 15.0495 206.041 14.0708 207.157L14.0041 207.233L13.9533 207.147C13.4576 206.315 13.0625 205.651 12.7765 205.17C12.6537 204.955 12.5541 204.781 12.4747 204.643C12.4079 204.523 12.3767 204.459 12.3825 204.455C12.3883 204.452 12.4312 204.509 12.5086 204.622C12.5965 204.755 12.7066 204.922 12.8427 205.129C13.1435 205.601 13.5582 206.253 14.0783 207.07L13.9607 207.061C14.924 205.932 16.1791 204.461 17.6593 202.726L17.7525 202.617L17.8367 202.735C18.7725 204.042 19.8079 205.487 20.9158 207.034L20.7087 207.028C21.7335 205.738 22.8165 204.375 23.936 202.967C24.0043 202.881 24.0721 202.796 24.1351 202.717L24.2379 202.587L24.3438 202.714C25.6095 204.227 26.8286 205.685 27.9513 207.027L27.749 207.035C28.8622 205.482 29.8992 204.036 30.8297 202.737L30.9202 202.611L31.0081 202.737C32.2288 204.48 33.2652 205.961 34.0411 207.069L33.9309 207.066C34.4838 206.404 34.9228 205.877 35.2427 205.493C35.3852 205.329 35.5006 205.195 35.5938 205.087C35.6749 204.996 35.7188 204.951 35.7236 204.955Z" fill="#F5F5F5"/>
<path d="M36.4268 199.337C36.4268 199.411 31.0022 199.472 24.3124 199.472C17.62 199.472 12.1965 199.411 12.1965 199.337C12.1965 199.263 17.62 199.202 24.3124 199.202C31.0022 199.202 36.4268 199.262 36.4268 199.337Z" fill="#F5F5F5"/>
<path d="M188.297 8.2358L183.859 8.25977L183.979 30.3436L188.417 30.3196L188.297 8.2358Z" fill="#E0E0E0"/>
<path d="M156.904 8.29389L145.411 8.35596L145.477 20.5476L156.97 20.4855L156.904 8.29389Z" fill="#EBEBEB"/>
<path d="M168.343 8.23188L156.85 8.29395L156.916 20.4856L168.409 20.4235L168.343 8.23188Z" fill="#F5F5F5"/>
<path d="M145.425 11.7297C153.063 11.7927 160.72 11.7482 168.356 11.6243C168.514 11.6216 168.513 11.3812 168.355 11.3801C160.717 11.3378 153.06 11.3754 145.424 11.5205C145.29 11.5226 145.291 11.7286 145.425 11.7297Z" fill="#E0E0E0"/>
<path d="M159.127 20.2832L138.246 20.396L138.299 30.3311L159.181 30.2183L159.127 20.2832Z" fill="#EBEBEB"/>
<path d="M179.909 20.1704L159.028 20.2832L159.081 30.2183L179.962 30.1055L179.909 20.1704Z" fill="#F5F5F5"/>
<path d="M138.257 23.1641C152.128 23.3214 166.048 23.1805 179.919 22.9586C180.076 22.9559 180.075 22.715 179.918 22.7144C166.046 22.6414 152.125 22.6493 138.256 22.9549C138.12 22.9581 138.121 23.163 138.257 23.1641Z" fill="#E0E0E0"/>
<path d="M211.346 30.3364H130.448V33.8958H211.346V30.3364Z" fill="#E0E0E0"/>
<path d="M146.976 32.0483H143.692V44.1939H146.976V32.0483Z" fill="#E0E0E0"/>
<path d="M196.001 32.0483H192.717V44.1939H196.001V32.0483Z" fill="#E0E0E0"/>
<path d="M192.628 -3.91449e-05L188.19 0.0239258L188.354 30.3969L192.792 30.3729L192.628 -3.91449e-05Z" fill="#EBEBEB"/>
<path d="M199.564 5.65417L192.667 5.69141L192.8 30.3051L199.696 30.2678L199.564 5.65417Z" fill="#F5F5F5"/>
<path d="M199.512 10.4044C199.512 10.4706 197.969 10.524 196.065 10.524C194.16 10.524 192.617 10.4706 192.617 10.4044C192.617 10.3382 194.16 10.2847 196.065 10.2847C197.969 10.2852 199.512 10.3387 199.512 10.4044Z" fill="#E0E0E0"/>
<path d="M199.512 9.37018C199.512 9.43637 197.969 9.48986 196.065 9.48986C194.16 9.48986 192.617 9.43637 192.617 9.37018C192.617 9.30398 194.16 9.25049 196.065 9.25049C197.969 9.25049 199.512 9.30398 199.512 9.37018Z" fill="#E0E0E0"/>
<path d="M199.512 26.5723C199.512 26.6385 197.969 26.692 196.065 26.692C194.16 26.692 192.617 26.6385 192.617 26.5723C192.617 26.5061 194.16 26.4526 196.065 26.4526C197.969 26.4532 199.512 26.5067 199.512 26.5723Z" fill="#E0E0E0"/>
<path d="M199.512 25.5381C199.512 25.6043 197.969 25.6578 196.065 25.6578C194.16 25.6578 192.617 25.6043 192.617 25.5381C192.617 25.4719 194.16 25.4185 196.065 25.4185C197.969 25.4185 199.512 25.4719 199.512 25.5381Z" fill="#E0E0E0"/>
<path d="M196.176 23.2826C196.109 23.2826 196.056 20.7994 196.056 17.7368C196.056 14.6731 196.109 12.1904 196.176 12.1904C196.242 12.1904 196.295 14.6731 196.295 17.7368C196.295 20.7994 196.241 23.2826 196.176 23.2826Z" fill="#E0E0E0"/>
<path d="M207.094 11.7065H199.587V30.285H207.094V11.7065Z" fill="#EBEBEB"/>
<path d="M190.34 6.46952C191.045 6.46952 191.616 5.89834 191.616 5.19375C191.616 4.48915 191.045 3.91797 190.34 3.91797C189.635 3.91797 189.064 4.48915 189.064 5.19375C189.064 5.89834 189.635 6.46952 190.34 6.46952Z" fill="#E0E0E0"/>
<path d="M190.735 8.70264H189.946V26.7711H190.735V8.70264Z" fill="#E0E0E0"/>
<path d="M233.964 221.418C233.964 221.495 183.063 221.556 120.289 221.556C57.4934 221.556 6.60425 221.494 6.60425 221.418C6.60425 221.342 57.4934 221.281 120.289 221.281C183.063 221.281 233.964 221.342 233.964 221.418Z" fill="#263238"/>
<path d="M66.9064 27.0596C69.3923 30.0761 70.7713 33.985 70.729 37.8939C70.7046 40.1277 70.2931 42.5908 71.5927 44.4078C72.5788 45.7869 74.3773 46.4769 75.1785 47.9714C76.1424 49.7683 75.3205 52.0381 75.9136 53.9891C76.7541 56.7546 79.9936 57.9112 81.9144 60.0714C83.5799 61.9446 84.1964 64.6857 83.5254 67.1012C82.8544 69.5166 80.9288 71.5375 78.56 72.3573C77.2879 72.7974 75.8337 72.8917 74.6294 72.2917C73.3303 71.644 72.5274 70.3158 71.8771 69.0183C70.5981 66.4683 59.3857 52.6688 58.7507 49.8875" fill="#263238"/>
<path d="M58.7497 23.8064C54.1651 23.0682 49.7584 26.1122 47.8264 30.3352C45.8945 34.5581 45.8421 39.3609 45.6996 44.0028C45.5572 48.6446 45.2309 53.4898 42.8616 57.484C41.3575 60.0191 39.0289 62.2423 38.6635 65.1672C38.3368 67.786 39.692 70.4234 39.2418 73.0237C38.8499 75.2877 37.1251 77.2572 37.1934 79.554C37.2755 82.3169 40.1172 84.3987 42.8806 84.4728C45.6435 84.547 48.2252 83.0991 50.3912 81.3827C53.9061 78.5971 56.7553 74.9768 58.6364 70.9058" fill="#263238"/>
<path d="M51.2074 34.7397C50.6015 29.9045 54.0994 25.4857 59.0093 25.018C63.6368 24.5769 67.7496 28.0229 68.4428 32.6192C69.0508 36.6489 69.5735 40.7161 69.5549 42.1931C69.4983 46.648 66.8916 48.3819 65.8351 48.903C65.5942 49.0221 64.929 49.1567 64.6626 49.1948C64.6462 49.1974 64.6345 49.2128 64.6377 49.2292L65.627 54.3429C66.0755 57.6936 64.205 60.6816 60.8602 61.1693C57.5042 61.6586 54.8806 59.0849 54.3679 55.732L51.2074 34.7397Z" fill="#FFBE9D"/>
<path d="M67.5317 34.5707C67.4581 34.675 66.8698 34.3594 66.1162 34.4712C65.3615 34.5723 64.8647 35.041 64.7694 34.9605C64.7233 34.9255 64.788 34.7476 65.003 34.5368C65.2148 34.3276 65.5945 34.0989 66.0648 34.0321C66.5351 33.9665 66.955 34.0814 67.2082 34.2254C67.4656 34.37 67.5683 34.5236 67.5317 34.5707Z" fill="#263238"/>
<path d="M60.8255 36.1996C60.7519 36.304 60.163 35.9883 59.41 36.1001C58.6558 36.2007 58.1585 36.6694 58.0632 36.5889C58.0171 36.5539 58.0807 36.3765 58.2973 36.1657C58.5091 35.9565 58.8888 35.7278 59.3586 35.661C59.8289 35.5954 60.2494 35.7103 60.502 35.8543C60.7593 35.9989 60.8621 36.1525 60.8255 36.1996Z" fill="#263238"/>
<path d="M63.5748 40.2419C63.5653 40.1995 64.0218 40.0502 64.7675 39.8426C64.9571 39.7944 65.1339 39.7298 65.1472 39.5936C65.1721 39.448 65.0614 39.2521 64.9354 39.0418C64.6864 38.6023 64.4259 38.1415 64.1521 37.6585C63.0569 35.6863 62.2345 34.0531 62.3139 34.0097C62.3939 33.9662 63.3461 35.5296 64.4413 37.5018C64.7066 37.989 64.9602 38.4529 65.2017 38.8972C65.3066 39.1054 65.4681 39.3352 65.412 39.6381C65.3813 39.7896 65.2552 39.9146 65.1366 39.9659C65.0185 40.0216 64.9105 40.0396 64.8162 40.0592C64.0578 40.2122 63.5844 40.2848 63.5748 40.2419Z" fill="#263238"/>
<path d="M64.6319 49.1987C64.6319 49.1987 61.7552 49.8622 57.7944 48.2041C57.7944 48.2041 59.5045 51.8853 64.8989 50.5767L64.6319 49.1987Z" fill="#EB996E"/>
<path d="M60.4465 34.2249C60.402 34.4409 59.6352 34.4531 58.7656 34.6888C57.8918 34.907 57.216 35.2698 57.072 35.1029C57.0068 35.0224 57.1027 34.8117 57.3627 34.5707C57.6196 34.3308 58.0485 34.0761 58.5707 33.9394C59.0934 33.8039 59.5918 33.8176 59.9334 33.9013C60.2771 33.9855 60.4645 34.1227 60.4465 34.2249Z" fill="#263238"/>
<path d="M66.9134 32.8998C66.8054 33.0905 66.2604 32.9882 65.6345 33.0714C65.0059 33.1323 64.4974 33.3547 64.3497 33.1932C64.2835 33.1138 64.3417 32.93 64.5493 32.7346C64.7538 32.5397 65.1149 32.3522 65.5466 32.3024C65.9776 32.2537 66.3722 32.3549 66.6153 32.4984C66.8615 32.6419 66.9595 32.8077 66.9134 32.8998Z" fill="#263238"/>
<path d="M59.192 37.174C59.2439 37.5013 59.5632 37.7275 59.9064 37.6798C60.2485 37.6321 60.4847 37.3287 60.4333 37.0014C60.3814 36.6741 60.0615 36.4474 59.7194 36.4951C59.3763 36.5428 59.1401 36.8462 59.192 37.174Z" fill="#263238"/>
<path d="M65.8682 35.7287C65.9196 36.056 66.24 36.2821 66.5827 36.2345C66.9248 36.1868 67.161 35.8834 67.1096 35.5561C67.0577 35.2288 66.7378 35.0021 66.3957 35.0498C66.0525 35.0974 65.8163 35.4014 65.8682 35.7287Z" fill="#263238"/>
<path d="M64.7609 41.7105C64.2758 41.5702 63.858 41.8159 63.6615 42.1676C63.4645 42.5192 63.5116 43.0006 63.795 43.2871C64.0783 43.5742 64.5825 43.6192 64.8954 43.365C65.1073 43.1923 65.2143 42.9169 65.2413 42.6447C65.2662 42.3932 65.2254 42.1242 65.0702 41.925C64.915 41.7254 64.628 41.6184 64.3971 41.7211" fill="#EB996E"/>
<path d="M67.855 29.0146C67.5102 27.339 66.3562 25.9097 64.9518 24.9331C63.7586 24.1038 62.3473 23.5546 60.8951 23.5101C59.4425 23.4656 57.9538 23.9539 56.9047 24.9591C56.1288 25.7021 55.7311 26.7549 55.6951 27.8278L55.7793 27.0875C55.5616 27.6954 55.5622 28.3558 55.7888 28.9537C55.7894 28.9548 55.7894 28.9564 55.7894 28.9574L55.7888 28.9537C55.9117 29.2784 56.0589 29.603 56.1892 29.9287C56.5599 30.8544 57.278 31.6356 58.1688 32.0831C58.5792 32.2891 59.0342 32.4273 59.4933 32.4056C59.9519 32.3839 60.4148 32.1864 60.6934 31.8209C61.0911 31.2993 61.045 30.5759 60.9804 29.9229C61.3744 30.5383 61.7923 31.1764 62.4256 31.5408C63.059 31.9051 63.9736 31.8924 64.4195 31.3131C64.8511 30.7528 64.6801 29.9473 64.4301 29.2853C64.8347 29.9022 65.4146 30.4032 66.084 30.7146C66.4542 30.8867 66.8911 30.9995 67.2661 30.8375C67.5838 30.6998 67.7983 30.3815 67.8793 30.0447C67.9609 29.7084 67.9249 29.3541 67.855 29.0146Z" fill="#263238"/>
<path d="M64.0288 30.3981C63.9806 30.3997 63.9886 29.77 63.7852 28.7934C63.5808 27.8333 63.0946 26.476 61.9565 25.4729C61.3957 24.9778 60.7506 24.6351 60.1241 24.4837C59.4966 24.3285 58.8997 24.347 58.4189 24.4408C57.445 24.6388 56.9731 25.1006 56.944 25.0524C56.9344 25.0418 57.0356 24.9179 57.2686 24.7495C57.5 24.5811 57.8734 24.3793 58.376 24.2506C58.8764 24.1267 59.5088 24.0849 60.1824 24.2363C60.856 24.3846 61.5466 24.7432 62.1392 25.2664C63.3425 26.3277 63.818 27.7666 63.9769 28.7564C64.0579 29.2605 64.0759 29.6731 64.0722 29.9569C64.068 30.2424 64.0457 30.3986 64.0288 30.3981Z" fill="#455A64"/>
<path d="M112.803 92.1436L92.4398 84.0711C92.4398 84.0711 82.008 70.3913 82.2256 70.126L74.9036 78.1455L85.5462 92.5524L110.207 98.3255L121.887 98.4197C120.984 93.9278 112.803 92.1436 112.803 92.1436Z" fill="#FFBE9D"/>
<path d="M68.4199 53.119L65.6475 52.0444L53.6682 53.5633V55.68L53.325 55.7219C53.325 55.7219 49.6041 56.3982 45.9865 58.57C41.6063 61.1999 39.3296 66.2723 40.1409 71.3172C40.6282 74.3464 41.5724 78.0287 43.3915 80.1565C46.8704 84.2264 50.0479 79.1964 50.0479 79.1964C50.0479 79.1964 52.232 84.1772 52.1064 86.5328C52.0016 88.5055 51.1288 92.6162 50.8481 93.8999C50.801 94.1165 50.9429 94.3251 51.1606 94.3654L76.432 99.0374L76.5554 92.8608L75.7515 67.4554L74.6362 57.5882C74.6362 57.5892 74.6717 52.8754 68.4199 53.119Z" fill="#C6C6C6"/>
<path d="M74.2485 55.9482L83.8839 69.8701L76.1265 79.3195L74.2485 55.9482Z" fill="#C6C6C6"/>
<path d="M76.314 85.2454C76.2949 85.2449 76.2822 84.925 76.2759 84.3467C76.2679 83.7223 76.2579 82.8977 76.2452 81.9005C76.1954 79.8373 76.0789 76.9844 75.6679 73.863C75.2686 70.7395 74.6617 67.9491 74.1972 65.9377C73.969 64.9664 73.7805 64.1636 73.6375 63.5556C73.5056 62.9927 73.4415 62.6791 73.4595 62.6744C73.4781 62.6696 73.5771 62.9736 73.7413 63.5286C73.906 64.0831 74.13 64.8896 74.3868 65.8916C74.9005 67.8945 75.5408 70.6892 75.9417 73.828C76.3548 76.9637 76.4406 79.8309 76.4406 81.8989C76.4305 82.9338 76.4157 83.771 76.3834 84.3488C76.3569 84.9266 76.3331 85.2459 76.314 85.2454Z" fill="#263238"/>
<path d="M52.6044 64.0768C52.6028 64.1213 51.8731 64.1123 50.7 64.1748C49.527 64.2362 47.9102 64.3972 46.1562 64.7584C44.4022 65.1233 42.8542 65.6184 41.7537 66.0278C40.6522 66.4361 39.9859 66.7343 39.9669 66.694C39.9584 66.6771 40.1168 66.5844 40.4101 66.4319C40.7025 66.2767 41.1367 66.0749 41.6822 65.8461C42.7726 65.387 44.328 64.8569 46.1 64.4883C47.872 64.1229 49.5101 63.9915 50.6932 63.9799C51.2847 63.973 51.7634 63.9857 52.0934 64.0122C52.4233 64.036 52.605 64.0583 52.6044 64.0768Z" fill="#FAFAFA"/>
<path d="M74.9239 70.4509C74.9297 70.4864 74.4727 70.5971 73.7228 70.712C72.9729 70.8269 71.9291 70.9382 70.7709 70.9784C69.6127 71.0176 68.563 70.9784 67.8073 70.9149C67.051 70.8518 66.5877 70.7724 66.5908 70.7364C66.594 70.6967 67.0627 70.7067 67.8168 70.72C68.571 70.7337 69.6121 70.7417 70.7613 70.703C71.91 70.6633 72.948 70.5839 73.6995 70.5187C74.4515 70.4536 74.9181 70.4112 74.9239 70.4509Z" fill="#FAFAFA"/>
<path d="M79.3475 64.15C79.3968 64.2014 78.5436 65.0535 77.2805 65.8225C76.0206 66.5973 74.8736 66.9685 74.8502 66.9013C74.8195 66.8255 75.901 66.3473 77.1365 65.5868C78.3752 64.8332 79.294 64.0886 79.3475 64.15Z" fill="#FAFAFA"/>
<path d="M75.453 57.6952C75.5006 57.7423 74.3641 58.7639 72.6467 59.4841C70.934 60.2165 69.4099 60.3214 69.4088 60.2547C69.3945 60.1699 70.8678 59.9459 72.5392 59.2299C74.2159 58.5282 75.4021 57.6258 75.453 57.6952Z" fill="#FAFAFA"/>
<path d="M75.9788 81.2285C75.9863 81.246 75.8078 81.3386 75.4784 81.4917C75.15 81.6474 74.6628 81.847 74.0527 82.0705C72.8331 82.5191 71.0976 83.0201 69.1334 83.3241C67.1676 83.6238 65.3617 83.6672 64.0636 83.6053C63.4144 83.5751 62.8901 83.5311 62.53 83.4808C62.1698 83.4342 61.9718 83.3993 61.9739 83.3802C61.9781 83.3352 62.7773 83.3998 64.0689 83.4104C65.3595 83.422 67.1453 83.3484 69.0921 83.0519C71.0373 82.751 72.7627 82.2855 73.9902 81.8868C75.2184 81.4885 75.9614 81.1866 75.9788 81.2285Z" fill="#FAFAFA"/>
<path d="M76.1753 88.4092C76.179 88.4177 76.1011 88.4617 75.9491 88.5374C75.7669 88.6237 75.5456 88.7291 75.2781 88.8557C74.6956 89.1321 73.8329 89.4907 72.7525 89.8947C71.6732 90.303 70.3646 90.7251 68.8929 91.1297C67.4175 91.5195 65.7773 91.8833 64.0371 92.1587C62.2948 92.4235 60.6207 92.5739 59.0966 92.6491C57.5714 92.7095 56.196 92.7042 55.0436 92.6417C53.8918 92.584 52.9613 92.5035 52.3221 92.4166C52.0292 92.3769 51.7867 92.3436 51.5865 92.3165C51.4186 92.2906 51.3312 92.2726 51.3323 92.263C51.3333 92.2535 51.4228 92.253 51.5923 92.2615C51.7936 92.2747 52.0372 92.2906 52.3321 92.3097C52.9729 92.3637 53.9024 92.414 55.0505 92.4463C56.1987 92.4834 57.5671 92.4691 59.0833 92.3949C60.599 92.3059 62.2614 92.1492 63.9942 91.8855C65.7244 91.6117 67.356 91.2574 68.8272 90.8829C70.2942 90.4942 71.6028 90.0933 72.6858 89.7104C73.7699 89.3318 74.641 89.0018 75.2352 88.7561C75.5101 88.6486 75.7378 88.5591 75.9253 88.486C76.0858 88.4278 76.171 88.4008 76.1753 88.4092Z" fill="#FAFAFA"/>
<path d="M29.7075 200.99L26.8451 213.929L21.6302 223.51C21.2542 224.201 21.5418 225.065 22.2562 225.394C22.6566 225.577 23.1168 225.558 23.4981 225.338C25.9241 223.936 34.8239 218.735 34.9801 217.776C35.1612 216.666 38.9054 204.328 38.9054 204.328L29.7075 200.99Z" fill="#C6C6C6"/>
<g opacity="0.6">
<path d="M22.2563 225.394L35.1937 216.908L35.0597 217.453C34.9442 217.925 34.6667 218.341 34.2732 218.625C33.2204 219.385 30.2674 221.419 23.5369 225.348C23.1455 225.577 22.6631 225.594 22.2563 225.394Z" fill="white"/>
</g>
<g opacity="0.6">
<path d="M33.5705 212.108C33.1934 212.252 32.9683 212.714 33.0965 213.096C33.2246 213.479 33.6923 213.712 34.072 213.575C34.4517 213.437 34.7387 212.891 34.5687 212.526C34.3987 212.16 33.8342 211.916 33.499 212.141" fill="white"/>
</g>
<path d="M26.578 220.492C26.4964 220.509 26.3714 219.764 25.6952 219.214C25.0353 218.644 24.2796 218.651 24.2828 218.567C24.2796 218.533 24.4665 218.473 24.7785 218.504C25.0877 218.533 25.5125 218.683 25.8821 218.991C26.2502 219.301 26.471 219.693 26.5536 219.993C26.6389 220.294 26.6124 220.489 26.578 220.492Z" fill="#263238"/>
<path d="M25.2382 221.991C25.1635 222.031 24.8526 221.511 24.2341 221.158C23.6229 220.79 23.0181 220.773 23.0171 220.687C22.9959 220.613 23.6822 220.491 24.3813 220.907C25.0846 221.314 25.3139 221.972 25.2382 221.991Z" fill="#263238"/>
<path d="M28.8259 218.701C28.7507 218.748 28.2772 217.946 27.3626 217.311C26.4581 216.662 25.544 216.484 25.5625 216.398C25.5583 216.324 26.5587 216.38 27.5305 217.073C28.5092 217.757 28.8968 218.681 28.8259 218.701Z" fill="#263238"/>
<path d="M30.0248 214.841C29.9713 214.91 29.3332 214.438 28.4165 214.178C27.5029 213.905 26.7112 213.96 26.7032 213.874C26.6831 213.802 27.5151 213.608 28.4975 213.899C29.4825 214.181 30.0804 214.791 30.0248 214.841Z" fill="#263238"/>
<path d="M30.9612 211.064C30.903 211.129 30.2934 210.524 29.3052 210.33C28.3212 210.112 27.521 210.422 27.4935 210.34C27.4792 210.307 27.6592 210.181 27.9982 210.082C28.3344 209.982 28.8339 209.935 29.365 210.045C29.8957 210.156 30.3342 210.4 30.6027 210.626C30.8733 210.852 30.9872 211.04 30.9612 211.064Z" fill="#263238"/>
<path d="M29.5042 209.616C29.4878 209.612 29.5011 209.432 29.6059 209.125C29.7108 208.82 29.9141 208.384 30.3055 207.945C30.503 207.74 30.7233 207.468 31.1242 207.387C31.3239 207.345 31.5818 207.444 31.693 207.652C31.8037 207.854 31.7995 208.077 31.7539 208.282C31.54 209.096 30.645 209.714 29.697 209.606C28.7496 209.481 28.0431 208.749 27.8509 207.955C27.8154 207.752 27.8154 207.515 27.9684 207.322C28.1204 207.126 28.4032 207.103 28.5801 207.18C28.9482 207.331 29.1356 207.61 29.3199 207.829C29.6758 208.295 29.8585 208.737 29.9528 209.044C30.0476 209.354 30.0582 209.534 30.0412 209.538C29.9877 209.56 29.8712 208.826 29.1595 207.958C28.9762 207.753 28.7697 207.501 28.5007 207.408C28.3699 207.362 28.2412 207.387 28.167 207.483C28.0924 207.575 28.0796 207.743 28.1141 207.904C28.2814 208.557 28.9286 209.224 29.7314 209.317C30.529 209.416 31.3154 208.872 31.4934 208.218C31.5341 208.06 31.531 207.891 31.4695 207.776C31.4092 207.663 31.2884 207.607 31.1581 207.626C30.8828 207.665 30.6487 207.894 30.4559 208.085C29.6822 208.897 29.5583 209.642 29.5042 209.616Z" fill="#263238"/>
<g opacity="0.3">
<path d="M29.3732 202.394L28.7542 205.361L38.1242 206.916L38.9053 204.328L29.7074 200.99L29.3732 202.394Z" fill="black"/>
</g>
<path d="M71.5742 205.779L70.8004 216.119C70.8004 216.119 81.0506 220.378 81.0935 222.302L60.9919 221.522L61.5358 205.362L71.5742 205.779Z" fill="#C6C6C6"/>
<g opacity="0.6">
<path d="M64.6185 215.006C64.2255 215.098 63.9395 215.525 64.0147 215.921C64.0899 216.318 64.5216 216.612 64.9161 216.528C65.3106 216.444 65.6697 215.942 65.5505 215.556C65.4314 215.17 64.9055 214.852 64.5427 215.029" fill="white"/>
</g>
<g opacity="0.6">
<path d="M60.9919 221.522L61.1106 219.896L80.3394 221.251C80.3394 221.251 81.219 221.675 81.0935 222.302L60.9919 221.522Z" fill="white"/>
</g>
<path d="M71.1302 216.029C71.1233 216.127 70.6308 216.152 70.1357 216.449C69.6325 216.733 69.3672 217.149 69.2783 217.106C69.1888 217.084 69.3577 216.503 69.9635 216.154C70.5662 215.799 71.1551 215.94 71.1302 216.029Z" fill="#263238"/>
<path d="M73.2048 216.982C73.2239 217.078 72.7917 217.228 72.4427 217.631C72.0816 218.023 71.9799 218.468 71.8824 218.46C71.7898 218.472 71.7442 217.894 72.188 217.403C72.6276 216.907 73.2064 216.889 73.2048 216.982Z" fill="#263238"/>
<path d="M74.3048 219.553C74.2148 219.57 74.0972 219.075 74.37 218.547C74.639 218.016 75.1103 217.823 75.1485 217.906C75.2009 217.988 74.8916 218.265 74.674 218.702C74.4468 219.134 74.4023 219.547 74.3048 219.553Z" fill="#263238"/>
<path d="M71.0452 213.653C71.0007 213.741 70.5553 213.588 69.9992 213.604C69.4426 213.609 69.0036 213.779 68.9559 213.693C68.9019 213.62 69.3372 213.273 69.9929 213.263C70.648 213.247 71.0965 213.578 71.0452 213.653Z" fill="#263238"/>
<g opacity="0.3">
<path d="M71.4186 207.826L71.283 209.669L61.4067 209.196L61.4735 207.065L71.4186 207.826Z" fill="black"/>
</g>
<path d="M71.1626 211.564C71.1621 211.605 70.7718 211.65 70.1559 211.52C69.8492 211.455 69.4902 211.339 69.1152 211.155C68.9283 211.063 68.7371 210.954 68.5491 210.826C68.4585 210.763 68.351 210.698 68.2541 210.578C68.1493 210.471 68.0974 210.209 68.2292 210.054C68.3383 209.903 68.5226 209.844 68.6683 209.846C68.8165 209.847 68.9357 209.882 69.0437 209.913C69.2656 209.976 69.4727 210.059 69.6612 210.152C70.0388 210.341 70.3423 210.574 70.5658 210.797C71.0154 211.247 71.1605 211.62 71.1261 211.637C71.0805 211.668 70.8655 211.352 70.4048 210.977C70.1749 210.791 69.88 210.595 69.5267 210.436C69.3498 210.358 69.1587 210.288 68.9558 210.236C68.745 210.171 68.5639 210.163 68.5057 210.256C68.4845 210.291 68.4813 210.305 68.5231 210.37C68.5671 210.429 68.6513 210.488 68.7398 210.551C68.9129 210.674 69.0882 210.782 69.2598 210.876C69.6035 211.063 69.9345 211.195 70.2184 211.287C70.7887 211.469 71.1663 211.51 71.1626 211.564Z" fill="#263238"/>
<path d="M71.0293 211.7C70.9938 211.714 70.8127 211.354 70.8016 210.717C70.7968 210.401 70.8445 210.02 70.9817 209.62C71.051 209.421 71.1432 209.217 71.2618 209.019C71.3873 208.825 71.5414 208.565 71.9238 208.536C72.1229 208.536 72.2823 208.698 72.3332 208.833C72.3946 208.971 72.4031 209.089 72.4221 209.206C72.4502 209.442 72.4364 209.672 72.3967 209.883C72.3167 210.309 72.1277 210.658 71.9264 210.907C71.5134 211.412 71.0992 211.514 71.0923 211.48C71.0616 211.43 71.4111 211.253 71.731 210.764C71.8888 210.523 72.0329 210.203 72.0864 209.83C72.1134 209.645 72.1181 209.448 72.0906 209.248C72.0673 209.033 71.9942 208.858 71.9132 208.876C71.8136 208.871 71.6373 209.025 71.5483 209.192C71.4382 209.369 71.3487 209.55 71.2777 209.728C71.1374 210.087 71.069 210.432 71.0436 210.725C70.9928 211.315 71.0833 211.687 71.0293 211.7Z" fill="#263238"/>
<path d="M50.7614 94.2922C50.7614 94.2922 47.5696 94.432 45.4666 105.3C43.3636 116.168 27.1985 204.222 27.1985 204.222L38.9056 204.328L60.992 120.613L59.5245 206.916L71.4185 207.826C71.4185 207.826 80.3442 112.349 80.4279 106.794C80.5327 99.8677 76.555 92.8618 76.555 92.8618L50.7614 94.2922Z" fill="#263238"/>
<path d="M66.8529 93.3618C66.9275 93.3772 65.7127 99.5861 64.1398 107.228C62.5664 114.873 61.2308 121.055 61.1561 121.04C61.0814 121.024 62.2963 114.817 63.8697 107.172C65.4421 99.5305 66.7782 93.3465 66.8529 93.3618Z" fill="#455A64"/>
<path d="M68.6783 94.9128C68.6582 94.8858 68.9955 94.7857 69.3588 95.1103C69.5257 95.2665 69.6904 95.5266 69.6782 95.8591C69.6718 96.196 69.4171 96.5238 69.0787 96.6625C68.7429 96.8076 68.3304 96.761 68.0852 96.5307C67.8384 96.3072 67.7674 96.008 67.7722 95.7792C67.7934 95.2925 68.1005 95.1209 68.1058 95.1543C68.1424 95.1818 67.9332 95.3809 67.9671 95.7739C67.9851 95.9614 68.0666 96.1896 68.2499 96.3368C68.4268 96.4872 68.7143 96.5164 68.9722 96.4083C69.2296 96.2992 69.4097 96.0731 69.425 95.8417C69.4473 95.6081 69.3414 95.3899 69.2196 95.2464C68.9611 94.9477 68.6725 94.9583 68.6783 94.9128Z" fill="#455A64"/>
<path d="M68.1709 99.2164C68.164 99.183 68.5003 99.2275 68.6841 99.657C68.7657 99.8598 68.8022 100.154 68.6518 100.437C68.504 100.726 68.1413 100.897 67.7917 100.866C67.4417 100.843 67.1096 100.617 67.0085 100.308C66.9031 100.005 66.9852 99.7211 67.0969 99.533C67.3453 99.1369 67.6842 99.1454 67.6721 99.1772C67.689 99.219 67.4226 99.2841 67.269 99.6241C67.1975 99.7867 67.1599 100.013 67.2452 100.217C67.3231 100.42 67.5503 100.569 67.8129 100.591C68.0756 100.61 68.3229 100.497 68.4315 100.309C68.5469 100.121 68.5454 99.8916 68.4998 99.72C68.4008 99.3609 68.1476 99.255 68.1709 99.2164Z" fill="#455A64"/>
<path d="M56.9516 95.0213C56.9675 95.0266 56.9257 95.222 56.8123 95.5657C56.6995 95.9094 56.502 96.3961 56.1953 96.9681C55.5916 98.1077 54.4657 99.5784 52.798 100.677C51.1304 101.776 49.3345 102.231 48.0492 102.337C47.4031 102.393 46.8778 102.383 46.5177 102.351C46.1575 102.32 45.9611 102.281 45.9627 102.264C45.9653 102.213 46.7623 102.303 48.028 102.143C49.2858 101.991 51.0239 101.517 52.6466 100.447C54.2687 99.3782 55.3893 97.9685 56.0259 96.8727C56.6715 95.7717 56.9029 95.0033 56.9516 95.0213Z" fill="#455A64"/>
<path d="M79.7318 102.745C79.7206 102.761 79.5962 102.685 79.3801 102.534C79.1609 102.387 78.8675 102.139 78.5312 101.807C77.857 101.146 77.0616 100.071 76.5362 98.7158C76.0162 97.3585 75.8843 96.0276 75.9404 95.0849C75.9664 94.6131 76.0178 94.2328 76.0824 93.9765C76.1411 93.7191 76.1825 93.5799 76.201 93.5836C76.2508 93.5926 76.1374 94.1635 76.1359 95.0897C76.1306 96.0138 76.2889 97.2981 76.7936 98.6168C77.3041 99.9328 78.0482 100.991 78.6726 101.672C79.2954 102.358 79.7619 102.706 79.7318 102.745Z" fill="#455A64"/>
<path d="M46.1057 73.3484L51.3073 73.6359C51.6362 75.3221 52.778 77.9007 52.778 77.9007C56.9649 70.6332 60.2113 60.8962 61.0168 56.9825C60.8992 56.5917 60.7605 56.159 60.5868 55.676C60.3866 55.1183 60.5582 54.0618 60.653 53.4756C60.7933 52.6044 61.0374 51.4319 61.1105 50.8896C61.3335 49.2362 61.5999 48.9762 62.1766 49.1631C62.9614 49.4173 61.8551 53.8071 62.498 53.9024C62.8439 53.9538 63.266 52.4498 63.3888 51.2158C63.5117 49.9819 64.0693 46.1863 64.4771 45.9332C65.075 45.5625 65.5961 46.1487 65.4452 47.3779C65.2927 48.6219 65.0999 52.3301 65.7518 52.3804C66.3942 52.4302 66.9339 46.1371 66.9339 46.1371C66.9339 46.1371 66.8322 44.7676 67.5874 44.8004C68.949 44.8597 67.885 51.4938 67.7685 52.1225C67.687 52.5599 68.3945 52.6399 68.4564 52.1654C68.5205 51.6771 68.8494 45.8723 70.2353 45.9189C71.2993 45.9549 69.4108 51.3858 70.0087 52.6452C70.606 53.904 71.0212 48.3693 72.0375 48.4455C72.4156 48.4741 72.6953 48.5483 72.0004 51.6803C71.6271 53.3638 70.5298 56.4587 69.5707 59.0214C67.9608 67.7061 60.8934 95.4899 49.8144 90.4043C43.6151 87.5583 40.7219 73.468 40.7219 73.468L46.1057 73.3484Z" fill="#FFBE9D"/>
<path d="M69.5705 59.025C69.5652 59.0229 69.5832 58.9588 69.6234 58.8348C69.6711 58.6945 69.732 58.5144 69.8088 58.2883C69.9819 57.7878 70.2245 57.0856 70.5338 56.1917C70.8425 55.2797 71.2217 54.1633 71.5988 52.8516C71.7921 52.1965 71.9483 51.4873 72.0945 50.7263C72.1649 50.3466 72.2375 49.9552 72.2814 49.5533C72.2999 49.3536 72.3211 49.1481 72.3095 48.9506C72.2946 48.7441 72.2629 48.5757 72.1003 48.5725C71.9314 48.5269 71.8186 48.6662 71.7026 48.8415C71.5967 49.0179 71.5135 49.2207 71.4399 49.4288C71.2916 49.8461 71.1751 50.2899 71.0602 50.7443C70.9447 51.1992 70.8383 51.6663 70.7001 52.1424C70.6164 52.3829 70.5798 52.6148 70.3823 52.8733C70.3452 52.9045 70.3119 52.9464 70.2372 52.9607C70.1556 52.9818 70.0953 52.9501 70.0381 52.9156C69.9618 52.8478 69.9253 52.7795 69.8919 52.716C69.8326 52.582 69.7961 52.4448 69.7802 52.3119C69.6854 51.249 69.9279 50.2216 70.0937 49.155C70.1848 48.6233 70.2812 48.0853 70.3511 47.5403C70.385 47.2681 70.4136 46.9938 70.4167 46.7232C70.4268 46.4721 70.3828 46.1327 70.2727 46.085C70.1371 46.0336 69.8919 46.1872 69.7622 46.4118C69.616 46.6326 69.508 46.8948 69.4153 47.1627C69.2315 47.7013 69.1118 48.2759 69.008 48.8569C68.9074 49.44 68.8285 50.0341 68.7634 50.6363C68.7337 50.9382 68.704 51.2411 68.6744 51.5456L68.6347 52.0053C68.623 52.1297 68.6236 52.3898 68.4239 52.5391C68.2401 52.6768 67.9939 52.6916 67.7974 52.5635C67.6989 52.4999 67.6221 52.3818 67.6073 52.2627C67.5946 52.2023 67.6057 52.1461 67.6099 52.0927L67.6295 51.9793C67.6766 51.6722 67.7238 51.3634 67.7714 51.0536C67.8588 50.4319 67.9346 49.8033 67.9949 49.1693C68.0542 48.5354 68.0982 47.8951 68.1083 47.2528C68.1093 46.6173 68.1046 45.951 67.9218 45.3685C67.862 45.1921 67.764 45.0311 67.6549 44.9851C67.5427 44.9448 67.3806 44.9856 67.2975 45.0989C67.1142 45.3568 67.0835 45.7816 67.0978 46.1279L67.0983 46.1449L67.0973 46.1544C66.9839 47.3989 66.8489 48.6223 66.6694 49.8244C66.5767 50.4255 66.4787 51.0202 66.3278 51.6086C66.2902 51.7558 66.2452 51.9025 66.1933 52.0498C66.1228 52.1965 66.1038 52.3458 65.8935 52.5068C65.7113 52.5936 65.5763 52.4951 65.5043 52.4215C65.427 52.3405 65.3957 52.2605 65.3602 52.1822C65.2988 52.0265 65.2686 51.8755 65.2411 51.7257C65.0727 50.532 65.1426 49.3833 65.2098 48.2569C65.2321 47.6907 65.3703 47.1304 65.2956 46.6331C65.2596 46.3869 65.1637 46.1401 65.0001 46.0299C64.9196 45.977 64.8275 45.9648 64.7284 45.9881C64.6792 46.0035 64.6294 46.0209 64.5807 46.0506C64.533 46.0903 64.5425 46.0755 64.506 46.1422C64.3 46.5749 64.1999 47.1219 64.0887 47.6166C63.9844 48.1234 63.8954 48.627 63.8144 49.1249C63.7339 49.6227 63.6624 50.1141 63.5988 50.5982C63.5326 51.078 63.4998 51.5647 63.4055 52.0376C63.3155 52.5089 63.2064 52.9675 63.0348 53.4076C62.9914 53.5172 62.9416 53.6258 62.8818 53.7328C62.8076 53.8324 62.7658 53.9621 62.5629 54.0241C62.4475 54.0558 62.3469 53.9769 62.295 53.9107C62.2505 53.8424 62.2288 53.7773 62.2113 53.7148C62.1843 53.5925 62.1726 53.4759 62.1684 53.3621C62.1567 52.4597 62.2907 51.6319 62.3358 50.8328C62.3606 50.4361 62.3787 50.0442 62.3326 49.6825C62.3087 49.5125 62.2542 49.3129 62.1568 49.2731C62.0148 49.2165 61.8316 49.1868 61.7251 49.2636C61.4911 49.4325 61.4095 49.8202 61.3332 50.13C61.2586 50.4573 61.2241 50.7825 61.1638 51.0954C60.9435 52.3479 60.7104 53.4235 60.5971 54.3032C60.5452 54.7427 60.5246 55.1394 60.5802 55.4698C60.6538 55.7902 60.7613 56.0741 60.8227 56.2971C60.8852 56.5078 60.9355 56.6768 60.9747 56.8086C61.007 56.9246 61.0213 56.9839 61.016 56.9861C61.0107 56.9876 60.9864 56.931 60.944 56.8182C60.8969 56.689 60.8375 56.5237 60.7623 56.3172C60.6887 56.0916 60.578 55.8337 60.4875 55.4879C60.4186 55.141 60.4314 54.7369 60.4743 54.2905C60.5701 53.3954 60.7841 52.3273 60.9874 51.0721C61.0436 50.7597 61.0737 50.4287 61.1463 50.0913C61.1844 49.9224 61.221 49.7508 61.2856 49.5782C61.3528 49.4108 61.4249 49.2191 61.6171 49.0925C61.8226 48.9649 62.0498 49.0115 62.242 49.0846C62.4904 49.2265 62.4994 49.4648 62.5428 49.6518C62.5968 50.0479 62.5799 50.4435 62.5587 50.8471C62.52 51.651 62.3945 52.4957 62.4125 53.351C62.4168 53.4563 62.4295 53.5601 62.4507 53.6544C62.4729 53.7572 62.5259 53.7969 62.5153 53.7773C62.5338 53.781 62.6148 53.6894 62.6604 53.6062C62.7102 53.5151 62.7552 53.4166 62.7949 53.3139C62.9533 52.9013 63.0581 52.4491 63.1428 51.9904C63.2313 51.5329 63.2609 51.0552 63.325 50.5643C63.3859 50.0765 63.4553 49.5819 63.5337 49.0809C63.6126 48.5799 63.6994 48.0726 63.8027 47.5589C63.9203 47.0425 63.9949 46.533 64.246 45.9955C64.2613 45.9415 64.3704 45.8207 64.4319 45.7916C64.4986 45.7514 64.5748 45.7217 64.6548 45.6984C64.8163 45.6555 65.0144 45.6793 65.1611 45.7779C65.4524 45.9833 65.5445 46.3027 65.5932 46.5865C65.6372 46.8773 65.6224 47.1717 65.5895 47.4519C65.5583 47.7236 65.5355 48 65.5159 48.278C65.4513 49.3859 65.3904 50.5468 65.553 51.6701C65.5774 51.8072 65.6075 51.9449 65.6547 52.0625C65.6785 52.117 65.7066 52.1758 65.7336 52.2002C65.7468 52.2187 65.7558 52.2176 65.7601 52.2208L65.7622 52.2214L65.7627 52.2229C65.7537 52.3469 65.7617 52.2489 65.759 52.2732C65.7574 52.2499 65.7521 52.2547 65.7373 52.2277C65.7643 52.2055 65.8496 52.0593 65.8903 51.937C65.9369 51.8046 65.9788 51.6674 66.0148 51.526C66.1588 50.9609 66.2563 50.3694 66.3468 49.7752C66.5227 48.5836 66.6572 47.3619 66.7689 46.1253V46.1512C66.7631 45.744 66.7562 45.3171 67.0369 44.895C67.2011 44.6869 67.4976 44.5741 67.7757 44.679C68.0511 44.8076 68.1527 45.0544 68.2306 45.2583C68.4403 45.9357 68.4334 46.6003 68.435 47.2559C68.425 47.9116 68.3794 48.5587 68.319 49.1985C68.2576 49.8382 68.1808 50.4716 68.0918 51.0976C68.0437 51.4105 67.9955 51.7225 67.9473 52.0328C67.9081 52.2298 67.9176 52.2362 67.9764 52.2944C68.0399 52.3426 68.1628 52.3352 68.2226 52.2849C68.2899 52.2399 68.2979 52.1472 68.3127 51.9751L68.3535 51.5154C68.3842 51.2088 68.4144 50.9037 68.4451 50.6003C68.5118 49.9934 68.5934 49.3928 68.6972 48.8013C68.8047 48.2102 68.9275 47.6261 69.1219 47.0605C69.2209 46.7788 69.3348 46.4992 69.5069 46.2391C69.5948 46.111 69.697 45.9823 69.8469 45.888C69.9999 45.8001 70.1684 45.7201 70.3977 45.8086C70.6153 45.9272 70.6524 46.1284 70.6868 46.2751C70.7096 46.4298 70.7197 46.5802 70.7149 46.7253C70.7101 47.0171 70.6789 47.2988 70.6434 47.5769C70.5698 48.1324 70.4707 48.6721 70.377 49.2032C70.2044 50.2582 69.9661 51.3083 70.0487 52.2722C70.0614 52.3908 70.0932 52.4994 70.1329 52.5952C70.1572 52.6434 70.1842 52.6832 70.2012 52.7006C70.2038 52.6948 70.197 52.6911 70.1885 52.7239C70.1837 52.7668 70.1901 52.7144 70.1832 52.7213C70.1631 52.6884 70.1779 52.698 70.1864 52.6863C70.2981 52.5492 70.3765 52.2833 70.4459 52.0646C70.5836 51.6028 70.6937 51.1352 70.8129 50.6792C70.932 50.2232 71.0522 49.7752 71.2095 49.3436C71.2884 49.128 71.3758 48.9162 71.4987 48.7149C71.5654 48.6164 71.6311 48.5158 71.7402 48.4343C71.7878 48.3908 71.8593 48.3601 71.9292 48.3405C72.0118 48.3278 72.0786 48.3294 72.1326 48.34C72.257 48.3453 72.426 48.4544 72.4673 48.5852C72.5187 48.7086 72.5298 48.8251 72.5351 48.9358C72.5457 49.1593 72.5213 49.3679 72.5001 49.5755C72.4503 49.9881 72.3736 50.3816 72.2989 50.7639C72.1448 51.5255 71.9774 52.2447 71.7746 52.9003C71.379 54.2142 70.9818 55.3253 70.6535 56.2319C70.3235 57.138 70.0561 57.8366 69.8702 58.309C69.7807 58.5309 69.7097 58.7072 69.6541 58.8444C69.6038 58.9667 69.5757 59.0271 69.5705 59.025Z" fill="#EB996E"/>
<path d="M40.6626 73.95C41.6688 77.5003 43.6346 82.9858 45.7477 88.7689C46.0533 89.6046 47.2157 89.6591 47.5965 88.8547L52.778 77.9007C52.778 77.9007 51.5303 68.9014 51.6362 69.2192C51.7421 69.5369 40.9465 70.3832 40.9465 70.3832L40.6626 73.95Z" fill="#C6C6C6"/>
<path d="M52.3316 72.1846C52.3432 72.2286 51.6881 72.4187 50.6623 72.8095C49.637 73.1993 48.2495 73.8189 46.8186 74.6843C45.3892 75.5539 44.1982 76.4976 43.3789 77.2268C42.558 77.9555 42.0862 78.4486 42.0528 78.4179C42.0385 78.4052 42.1423 78.2691 42.343 78.0334C42.5416 77.7956 42.8488 77.4694 43.2465 77.0838C44.0393 76.3112 45.2272 75.3293 46.6756 74.4486C48.1256 73.5716 49.5449 72.9721 50.5967 72.6263C51.1225 72.4521 51.5536 72.3302 51.8565 72.2641C52.1584 72.1957 52.3268 72.1661 52.3316 72.1846Z" fill="#FAFAFA"/>
<path d="M54.3854 74.9162C54.3584 74.9358 54.0057 74.5201 53.5211 73.785C53.0366 73.051 52.4365 71.9865 51.9207 70.7436C51.4065 69.4996 51.0771 68.3228 50.9002 67.4612C50.7223 66.599 50.6773 66.0557 50.7106 66.0504C50.7525 66.0435 50.8653 66.5736 51.0898 67.4156C51.3138 68.2582 51.6676 69.4101 52.1755 70.6376C52.6854 71.8642 53.2495 72.9286 53.6874 73.6822C54.1249 74.4374 54.4199 74.8918 54.3854 74.9162Z" fill="#263238"/>
<path d="M57.8413 26.399C56.029 29.3281 55.644 33.1178 56.8292 36.3594C57.3615 37.8148 58.2041 39.2521 58.0499 40.7958C57.8921 42.3772 56.6926 43.8711 57.1163 45.4016C57.3668 46.3062 58.1432 46.9772 58.4408 47.8669C58.7903 48.9112 58.426 50.0413 58.2597 51.1312C57.8365 53.9047 58.7225 56.6935 58.9423 59.4913C59.1621 62.2891 58.4069 65.5636 55.912 66.7837C55.1536 67.155 54.1622 67.2614 53.5315 66.6958C52.7308 65.9782 52.9537 64.6882 53.173 63.6279C55.3655 53.0266 48.5926 42.6991 50.139 31.9819C50.3868 30.2639 51.3464 27.3496 52.583 26.1474C53.8196 24.9452 57.2402 25.0914 58.4106 26.3598" fill="#263238"/>
<path d="M47.4097 57.1221C47.388 57.1041 47.728 56.7402 48.2046 55.9893C48.6791 55.2431 49.2765 54.0775 49.5879 52.5215C49.7393 51.7441 49.8061 50.8782 49.751 49.9456C49.7102 49.013 49.5789 48.01 49.6419 46.9365C49.6641 46.3995 49.7791 45.8535 49.9459 45.3138C50.1339 44.7816 50.3775 44.2594 50.673 43.7584C51.2656 42.7565 52.016 41.8233 52.7029 40.8261C53.3898 39.8331 53.9596 38.7808 54.1439 37.6687C54.3293 36.5576 54.1291 35.4566 53.9591 34.4192C53.7759 33.3812 53.6493 32.3596 53.7255 31.4095C53.7859 30.4605 53.976 29.5893 54.2334 28.8251C54.7535 27.292 55.5224 26.2058 56.1055 25.5295C56.3989 25.1895 56.6473 24.9438 56.8263 24.7897C57.0032 24.6334 57.099 24.5551 57.1054 24.5619C57.1255 24.5831 56.7484 24.9072 56.1887 25.5983C55.6368 26.2884 54.906 27.3746 54.4193 28.8866C54.1783 29.6402 54.0036 30.4954 53.9543 31.4227C53.8902 32.3522 54.02 33.3377 54.2101 34.3768C54.3854 35.4111 54.6015 36.5391 54.4108 37.7127C54.2196 38.8857 53.6255 39.9772 52.9306 40.9823C52.2348 41.9917 51.4875 42.9185 50.9055 43.8961C50.6153 44.3844 50.3785 44.8881 50.1953 45.398C50.0338 45.9139 49.9199 46.4329 49.8956 46.9534C49.8272 47.9925 49.948 48.9929 49.9798 49.9361C50.0258 50.8809 49.9459 51.7722 49.7791 52.5607C49.4364 54.1431 48.8014 55.3125 48.2941 56.0486C48.0399 56.4193 47.8185 56.6889 47.6623 56.8657C47.5039 57.04 47.4171 57.1284 47.4097 57.1221Z" fill="#455A64"/>
<path d="M42.3871 57.9149C42.3786 57.9102 42.4358 57.7884 42.5512 57.5596C42.681 57.3086 42.852 56.9781 43.066 56.5655C43.5092 55.7018 44.1728 54.4594 44.8253 52.8547C45.465 51.2559 46.0989 49.253 46.1185 46.9694C46.1222 46.4012 46.0809 45.8192 45.9893 45.2318C45.8982 44.6435 45.7611 44.0429 45.6726 43.4164C45.5879 42.792 45.5471 42.1263 45.7129 41.4686C45.877 40.8092 46.2912 40.2225 46.7906 39.7686C47.7888 38.8609 48.9931 38.2699 49.6154 37.2075C50.2525 36.1632 50.3934 34.9382 50.5544 33.8113C50.692 32.6721 50.9108 31.5754 51.2836 30.6115C51.6437 29.6429 52.1251 28.8014 52.6272 28.0848C53.6381 26.6454 54.7625 25.7393 55.5711 25.2007C55.9784 24.9317 56.3083 24.7437 56.5403 24.6335C56.7701 24.5197 56.893 24.464 56.8972 24.4725C56.9115 24.499 56.4227 24.7304 55.632 25.2886C54.8498 25.8495 53.761 26.7662 52.7876 28.1955C52.3041 28.9073 51.8418 29.7387 51.4981 30.6915C51.1417 31.6416 50.9383 32.7023 50.8064 33.8446C50.6502 34.9721 50.521 36.2299 49.8463 37.3484C49.1721 38.4923 47.9255 39.1003 46.9786 39.9704C46.5014 40.4068 46.1307 40.9358 45.9787 41.5369C45.8257 42.1385 45.859 42.7693 45.9406 43.3788C46.0253 43.991 46.1593 44.5905 46.2499 45.1911C46.341 45.7932 46.3801 46.39 46.3727 46.9705C46.3383 49.3033 45.6731 51.3253 45.0059 52.9278C44.3248 54.5356 43.6332 55.7664 43.1603 56.6159C42.9278 57.0183 42.7413 57.3409 42.5999 57.5855C42.4686 57.8064 42.3955 57.9197 42.3871 57.9149Z" fill="#455A64"/>
<path d="M217.608 207.559C217.603 207.556 217.635 207.481 217.701 207.336C217.775 207.177 217.874 206.965 218.001 206.696C218.256 206.131 218.587 205.274 218.883 204.135C219.466 201.857 219.67 198.378 218.808 194.244C218.407 192.174 217.762 189.954 216.973 187.601C216.197 185.243 215.295 182.741 214.558 180.037C213.83 177.34 213.255 174.411 213.366 171.341C213.477 168.265 214.388 165.195 215.39 162.138C216.389 159.077 217.423 156.085 217.732 153.076C218.083 150.071 217.44 147.122 216.071 144.705C214.746 142.263 213.078 140.174 211.83 138.011C210.562 135.854 209.769 133.637 209.28 131.575C208.333 127.416 208.665 123.913 209.119 121.604C209.611 119.283 210.159 118.083 210.159 118.083C210.165 118.085 210.144 118.164 210.098 118.317C210.046 118.484 209.976 118.707 209.887 118.992C209.704 119.585 209.466 120.471 209.241 121.628C208.826 123.932 208.533 127.412 209.499 131.524C209.997 133.563 210.794 135.752 212.057 137.878C213.302 140.016 214.977 142.097 216.329 144.567C217.727 147.01 218.399 150.056 218.043 153.107C217.731 156.168 216.69 159.18 215.693 162.237C214.691 165.291 213.791 168.329 213.677 171.354C213.564 174.377 214.124 177.277 214.841 179.962C215.566 182.652 216.457 185.155 217.224 187.519C218.003 189.88 218.64 192.118 219.028 194.202C219.868 198.366 219.628 201.881 219.003 204.166C218.687 205.31 218.334 206.165 218.059 206.724C217.921 206.989 217.811 207.197 217.73 207.352C217.654 207.491 217.613 207.561 217.608 207.559Z" fill="#263238"/>
<path d="M213.524 140.145C213.524 140.145 210.99 132.04 215.536 127.295C215.696 127.129 215.977 127.207 216.018 127.434C216.261 128.772 216.564 132.849 213.524 140.145Z" fill="#C6C6C6"/>
<path d="M215.043 129.995C215.086 130.004 215.013 130.574 214.872 131.49C214.705 132.52 214.51 133.729 214.294 135.065C214.082 136.401 213.89 137.61 213.727 138.64C213.588 139.555 213.505 140.123 213.458 140.119C213.417 140.116 213.421 139.539 213.504 138.612C213.587 137.686 213.751 136.412 213.98 135.014C214.209 133.615 214.453 132.356 214.651 131.449C214.849 130.542 215 129.987 215.043 129.995Z" fill="#263238"/>
<path d="M216.502 159.26C216.502 159.26 218.052 150.911 224.289 148.843C224.509 148.77 224.72 148.971 224.65 149.191C224.239 150.488 222.6 154.233 216.502 159.26Z" fill="#C6C6C6"/>
<path d="M222.59 150.999C222.624 151.026 222.294 151.497 221.74 152.241C221.111 153.073 220.373 154.05 219.558 155.13C218.746 156.212 218.011 157.191 217.385 158.024C216.834 158.768 216.495 159.231 216.456 159.206C216.421 159.185 216.694 158.677 217.2 157.896C217.708 157.117 218.447 156.067 219.305 154.938C220.161 153.809 220.966 152.811 221.565 152.101C222.164 151.392 222.556 150.971 222.59 150.999Z" fill="#263238"/>
<path d="M214.816 180.205C214.816 180.205 213.875 171.766 219.243 167.975C219.432 167.842 219.692 167.973 219.689 168.203C219.672 169.563 219.192 173.623 214.816 180.205Z" fill="#C6C6C6"/>
<path d="M218.243 170.532C218.284 170.548 218.104 171.094 217.79 171.967C217.43 172.946 217.008 174.096 216.54 175.366C216.078 176.637 215.659 177.787 215.302 178.766C214.991 179.638 214.801 180.18 214.756 180.167C214.717 180.156 214.831 179.591 215.088 178.697C215.347 177.804 215.751 176.584 216.243 175.256C216.734 173.926 217.214 172.737 217.582 171.884C217.949 171.032 218.202 170.515 218.243 170.532Z" fill="#263238"/>
<path d="M219.515 201.273C219.515 201.273 218.876 192.805 224.376 189.209C224.57 189.083 224.825 189.222 224.814 189.453C224.749 190.812 224.124 194.852 219.515 201.273Z" fill="#C6C6C6"/>
<path d="M223.286 191.728C223.326 191.746 223.126 192.286 222.782 193.147C222.387 194.113 221.924 195.246 221.412 196.498C220.903 197.752 220.444 198.886 220.052 199.852C219.71 200.713 219.501 201.247 219.456 201.233C219.417 201.221 219.552 200.66 219.841 199.776C220.132 198.892 220.579 197.688 221.118 196.378C221.657 195.067 222.179 193.896 222.577 193.057C222.974 192.217 223.246 191.71 223.286 191.728Z" fill="#263238"/>
<path d="M209.882 133.024C209.882 133.024 202.355 129.094 202.207 122.523C202.202 122.292 202.456 122.149 202.646 122.281C203.765 123.054 206.865 125.719 209.882 133.024Z" fill="#C6C6C6"/>
<path d="M203.77 124.78C203.807 124.755 204.159 125.209 204.708 125.957C205.319 126.802 206.038 127.795 206.83 128.891C207.626 129.985 208.347 130.975 208.96 131.818C209.51 132.563 209.853 133.023 209.817 133.053C209.786 133.08 209.381 132.67 208.783 131.957C208.187 131.243 207.4 130.228 206.572 129.077C205.744 127.928 205.025 126.866 204.523 126.085C204.021 125.303 203.734 124.804 203.77 124.78Z" fill="#263238"/>
<path d="M217.964 150.43C217.964 150.43 210.212 146.963 209.666 140.414C209.647 140.184 209.892 140.026 210.089 140.145C211.253 140.85 214.509 143.321 217.964 150.43Z" fill="#C6C6C6"/>
<path d="M211.364 142.572C211.399 142.545 211.778 142.977 212.372 143.69C213.033 144.496 213.81 145.443 214.668 146.49C215.528 147.533 216.307 148.477 216.971 149.282C217.565 149.992 217.935 150.43 217.902 150.462C217.872 150.491 217.443 150.106 216.803 149.431C216.164 148.755 215.318 147.789 214.422 146.691C213.525 145.593 212.743 144.577 212.195 143.828C211.645 143.079 211.329 142.598 211.364 142.572Z" fill="#263238"/>
<path d="M213.504 169.844C213.504 169.844 208.182 163.227 210.678 157.148C210.766 156.935 211.056 156.906 211.178 157.102C211.893 158.259 213.666 161.942 213.504 169.844Z" fill="#C6C6C6"/>
<path d="M211.206 159.842C211.25 159.835 211.391 160.392 211.595 161.297C211.816 162.316 212.076 163.513 212.363 164.835C212.655 166.156 212.918 167.351 213.143 168.37C213.348 169.273 213.478 169.831 213.433 169.845C213.394 169.857 213.187 169.318 212.925 168.426C212.664 167.534 212.35 166.288 212.053 164.903C211.754 163.518 211.521 162.256 211.374 161.34C211.226 160.422 211.163 159.85 211.206 159.842Z" fill="#263238"/>
<path d="M218.777 192.692C218.777 192.692 211.084 189.095 210.648 182.538C210.633 182.308 210.88 182.154 211.076 182.277C212.227 183 215.441 185.526 218.777 192.692Z" fill="#C6C6C6"/>
<path d="M212.309 184.724C212.344 184.698 212.716 185.136 213.297 185.859C213.945 186.676 214.706 187.636 215.546 188.697C216.389 189.754 217.152 190.711 217.802 191.527C218.384 192.247 218.747 192.691 218.713 192.723C218.683 192.751 218.26 192.359 217.632 191.673C217.005 190.987 216.174 190.006 215.297 188.894C214.419 187.782 213.654 186.752 213.118 185.994C212.582 185.236 212.273 184.75 212.309 184.724Z" fill="#263238"/>
<path d="M234.099 159.306C234.106 159.306 234.109 159.37 234.108 159.493C234.105 159.64 234.1 159.819 234.095 160.035C234.072 160.545 234.042 161.234 234.004 162.094C233.905 163.905 233.767 166.429 233.601 169.447L233.6 169.455L233.598 169.465C233.049 172.538 231.484 175.944 229.382 179.25C227.84 181.686 226.224 183.901 224.83 185.96C223.427 188.014 222.242 189.916 221.417 191.602C220.586 193.285 220.103 194.731 219.82 195.742C219.685 196.25 219.583 196.645 219.525 196.916C219.461 197.186 219.423 197.326 219.412 197.325C219.401 197.323 219.419 197.178 219.462 196.904C219.5 196.628 219.582 196.227 219.7 195.712C219.947 194.686 220.402 193.215 221.214 191.505C222.02 189.792 223.194 187.864 224.586 185.797C225.971 183.723 227.578 181.505 229.112 179.082C231.203 175.791 232.76 172.437 233.33 169.414L233.328 169.431C233.54 166.415 233.717 163.894 233.844 162.085C233.913 161.228 233.969 160.54 234.01 160.031C234.032 159.816 234.05 159.638 234.065 159.491C234.08 159.368 234.091 159.305 234.099 159.306Z" fill="#263238"/>
<path d="M229.519 178.618C229.519 178.618 232.777 170.777 228.678 165.639C228.534 165.459 228.247 165.512 228.186 165.734C227.823 167.045 227.152 171.077 229.519 178.618Z" fill="#C6C6C6"/>
<path d="M228.926 168.373C228.969 168.368 229.069 168.935 229.184 169.856C229.299 170.778 229.428 172.054 229.529 173.467C229.631 174.881 229.679 176.164 229.678 177.094C229.676 178.024 229.628 178.599 229.587 178.598C229.54 178.598 229.509 178.025 229.454 177.101C229.384 176.061 229.303 174.839 229.212 173.489C229.118 172.14 229.032 170.918 228.96 169.877C228.902 168.951 228.882 168.377 228.926 168.373Z" fill="#263238"/>
<g opacity="0.3">
<path d="M229.519 178.618C229.519 178.618 232.777 170.777 228.678 165.639C228.534 165.459 228.247 165.512 228.186 165.734C227.823 167.045 227.152 171.077 229.519 178.618Z" fill="black"/>
</g>
<path d="M219.428 197.515C219.428 197.515 222.039 189.435 217.538 184.647C217.38 184.478 217.098 184.555 217.055 184.781C216.799 186.118 216.457 190.191 219.428 197.515Z" fill="#C6C6C6"/>
<path d="M218.006 187.352C218.049 187.344 218.195 187.901 218.384 188.81C218.573 189.719 218.805 190.98 219.021 192.381C219.237 193.781 219.388 195.057 219.463 195.983C219.537 196.911 219.536 197.487 219.495 197.49C219.448 197.493 219.371 196.925 219.241 196.008C219.087 194.977 218.906 193.766 218.707 192.428C218.504 191.09 218.32 189.88 218.163 188.848C218.03 187.931 217.963 187.36 218.006 187.352Z" fill="#263238"/>
<g opacity="0.3">
<path d="M219.428 197.515C219.428 197.515 222.039 189.435 217.538 184.647C217.38 184.478 217.098 184.555 217.055 184.781C216.799 186.118 216.457 190.191 219.428 197.515Z" fill="black"/>
</g>
<path d="M233.667 169.034C233.667 169.034 240.624 164.164 239.922 157.63C239.897 157.401 239.627 157.292 239.455 157.446C238.446 158.358 235.716 161.401 233.667 169.034Z" fill="#C6C6C6"/>
<g opacity="0.3">
<path d="M233.667 169.034C233.667 169.034 240.624 164.164 239.922 157.63C239.897 157.401 239.627 157.292 239.455 157.446C238.446 158.358 235.716 161.401 233.667 169.034Z" fill="black"/>
</g>
<path d="M238.663 160.07C238.703 160.09 238.483 160.622 238.086 161.461C237.688 162.3 237.113 163.446 236.44 164.694C235.768 165.941 235.119 167.05 234.619 167.834C234.119 168.618 233.77 169.077 233.736 169.055C233.696 169.029 233.978 168.529 234.427 167.72C234.926 166.805 235.512 165.73 236.161 164.543C236.805 163.353 237.389 162.277 237.886 161.359C238.333 160.546 238.624 160.051 238.663 160.07Z" fill="#263238"/>
<path d="M222.233 189.505C222.233 189.505 230.623 188.197 232.871 182.021C232.95 181.804 232.755 181.587 232.533 181.65C231.226 182.024 227.434 183.554 222.233 189.505Z" fill="#C6C6C6"/>
<g opacity="0.3">
<path d="M222.233 189.505C222.233 189.505 230.623 188.197 232.871 182.021C232.95 181.804 232.755 181.587 232.533 181.65C231.226 182.024 227.434 183.554 222.233 189.505Z" fill="black"/>
</g>
<path d="M230.666 183.657C230.693 183.692 230.261 184.073 229.535 184.651C228.809 185.23 227.787 186.006 226.634 186.829C225.481 187.653 224.41 188.362 223.616 188.847C222.822 189.33 222.306 189.589 222.285 189.553C222.261 189.513 222.734 189.188 223.494 188.659C224.345 188.057 225.344 187.351 226.449 186.57C227.552 185.786 228.55 185.076 229.4 184.472C230.161 183.94 230.64 183.622 230.666 183.657Z" fill="#263238"/>
<path d="M214.229 204.945L211.781 221.418H227.034L225.056 204.945H214.229Z" fill="#455A64"/>
<path d="M225.666 210.05C225.666 210.138 222.912 210.209 219.516 210.209C216.119 210.209 213.365 210.138 213.365 210.05C213.365 209.962 216.119 209.891 219.516 209.891C222.912 209.891 225.666 209.962 225.666 210.05Z" fill="#263238"/>
<path d="M225.969 211.361C225.969 211.448 223.124 211.519 219.617 211.519C216.108 211.519 213.264 211.448 213.264 211.361C213.264 211.273 216.108 211.202 219.617 211.202C223.124 211.202 225.969 211.273 225.969 211.361Z" fill="#263238"/>
<path d="M166.657 45.167C166.657 45.167 166.517 45.1696 166.243 45.1617C165.97 45.15 165.564 45.1309 165.032 45.168C163.975 45.2268 162.387 45.4265 160.518 46.2087C158.67 46.9898 156.507 48.3694 154.787 50.6752C153.934 51.8233 153.22 53.204 152.786 54.7689C152.368 56.336 152.226 58.0735 152.425 59.8635C152.651 61.6467 153.196 63.4923 154.196 65.1864C154.692 66.0317 155.28 66.8525 155.998 67.5765C156.693 68.3216 157.512 68.9809 158.435 69.483C159.357 69.9819 160.412 70.2959 161.492 70.253C162.563 70.2181 163.668 69.8405 164.452 69.0588C165.241 68.2829 165.632 67.1433 165.632 66.0062C165.638 64.8607 165.241 63.7211 164.558 62.7615C163.183 60.829 160.96 59.5289 158.595 58.8287C156.206 58.1329 153.584 58.1143 151.072 58.7244C149.821 59.0501 148.599 59.5278 147.45 60.1643C146.301 60.8046 145.256 61.6398 144.34 62.6042C144.122 62.8563 143.875 63.0845 143.682 63.3578L143.084 64.1649C142.735 64.7379 142.377 65.3098 142.109 65.9321C141.547 67.1602 141.154 68.4773 140.958 69.8346C140.602 72.5477 140.931 75.3413 142.027 77.7795C143.086 80.2214 144.891 82.3175 147.14 83.5806C148.262 84.2082 149.503 84.6128 150.761 84.6811C152.017 84.7589 153.27 84.4354 154.335 83.8232C155.399 83.2126 156.287 82.2953 156.753 81.1895C157.217 80.0848 157.208 78.8239 156.808 77.7265C156.414 76.6176 155.677 75.6707 154.817 74.9107C153.951 74.1513 152.942 73.5825 151.888 73.2086C149.752 72.5112 147.476 72.5482 145.441 73.0969C143.4 73.6524 141.581 74.7037 140.153 76.0456C138.726 77.3961 137.726 79.0532 137.121 80.7447C135.899 84.1542 136.21 87.615 137.26 90.2598C138.34 92.9268 140.056 94.8254 141.623 96.0805C143.204 97.3446 144.644 98.0267 145.631 98.4154C146.13 98.605 146.513 98.7395 146.776 98.8137C147.037 98.8952 147.169 98.944 147.169 98.944C147.169 98.944 147.033 98.9132 146.768 98.8407C146.502 98.7756 146.114 98.6495 145.611 98.4673C144.613 98.094 143.158 97.424 141.556 96.1642C139.967 94.9127 138.223 93.0094 137.116 90.317C136.04 87.6452 135.709 84.143 136.936 80.679C137.544 78.9605 138.556 77.2716 140.005 75.8915C141.456 74.521 143.303 73.4475 145.381 72.8766C147.453 72.3136 149.771 72.2676 151.966 72.9799C153.051 73.3627 154.088 73.9442 154.98 74.7243C155.867 75.5049 156.632 76.4815 157.047 77.6413C157.468 78.7894 157.48 80.1219 156.991 81.2896C156.501 82.4574 155.572 83.4154 154.466 84.0519C153.36 84.6901 152.054 85.0285 150.747 84.9485C149.441 84.8786 148.161 84.4608 147.008 83.8173C144.7 82.523 142.857 80.3819 141.775 77.8902C140.656 75.4032 140.321 72.5599 140.684 69.796C140.883 68.4132 141.285 67.0707 141.858 65.8166C142.133 65.1817 142.498 64.597 142.855 64.0118L143.466 63.1867C143.664 62.9076 143.917 62.6741 144.139 62.4167C145.075 61.4311 146.144 60.579 147.315 59.9271C148.488 59.2783 149.732 58.7927 151.007 58.4623C153.563 57.8426 156.233 57.8633 158.668 58.5756C161.081 59.2953 163.342 60.6134 164.766 62.6163C165.472 63.6093 165.89 64.8083 165.881 66.0068C165.878 67.1962 165.467 68.4026 164.623 69.2314C163.783 70.0639 162.618 70.4543 161.5 70.4887C160.37 70.5316 159.272 70.2 158.327 69.6842C157.377 69.1652 156.544 68.4895 155.839 67.7295C155.109 66.9902 154.513 66.1535 154.013 65.2929C153.002 63.568 152.454 61.6938 152.231 59.8853C152.035 58.0698 152.185 56.3084 152.617 54.7218C153.063 53.1367 153.793 51.7397 154.663 50.5825C156.416 48.2582 158.608 46.8807 160.477 46.1091C162.366 45.3364 163.966 45.1537 165.028 45.1124C165.563 45.0843 165.971 45.1124 166.244 45.1331C166.519 45.1505 166.657 45.167 166.657 45.167Z" fill="#263238"/>
<path d="M184.345 98.1577H110.091V155.429H184.345V98.1577Z" fill="#C6C6C6"/>
<path d="M110.091 98.1577L123.806 110.95H196.8L184.345 98.1577H110.091Z" fill="#C6C6C6"/>
<path d="M110.091 98.1575C111.43 98.1549 142.099 98.0993 184.345 98.0225H184.402L184.441 98.0632C188.42 102.147 192.548 106.386 196.771 110.722C196.814 110.766 196.858 110.811 196.899 110.854L197.127 111.088L196.8 111.088C166.869 111.066 140.304 111.046 123.806 111.033H123.773L123.749 111.011C115.167 102.934 110.541 98.5812 110.091 98.1575C110.545 98.5769 115.21 102.889 123.862 110.889L123.806 110.867C140.304 110.854 166.869 110.834 196.8 110.811L196.701 111.046C196.66 111.003 196.617 110.959 196.573 110.914C192.351 106.576 188.224 102.337 184.248 98.2512L184.345 98.292C142.099 98.2158 111.429 98.1602 110.091 98.1575Z" fill="#263238"/>
<path d="M132.394 124.566C131.608 124.567 130.891 125.273 130.877 126.059C130.864 126.845 131.556 127.575 132.341 127.603C133.127 127.632 133.87 126.953 133.913 126.168C133.956 125.384 133.292 124.628 132.509 124.57" fill="#263238"/>
<path d="M149.926 124.566C149.14 124.567 148.423 125.273 148.41 126.059C148.396 126.845 149.088 127.575 149.874 127.603C150.659 127.632 151.402 126.953 151.445 126.168C151.489 125.384 150.824 124.628 150.041 124.57" fill="#263238"/>
<path d="M150.039 138.276C149.96 138.308 149.843 136.843 148.569 134.984C147.944 134.062 147.007 133.085 145.764 132.292C144.529 131.5 142.959 130.93 141.264 130.868C139.567 130.837 137.97 131.319 136.692 132.043C135.407 132.766 134.418 133.691 133.743 134.577C132.37 136.363 132.173 137.821 132.096 137.783C132.086 137.781 132.101 137.695 132.138 137.533C132.183 137.373 132.218 137.125 132.333 136.829C132.524 136.225 132.914 135.378 133.588 134.459C134.257 133.539 135.255 132.576 136.567 131.822C137.871 131.067 139.516 130.559 141.272 130.592C143.027 130.655 144.641 131.253 145.901 132.078C147.17 132.903 148.113 133.919 148.731 134.875C149.354 135.829 149.696 136.697 149.854 137.311C149.953 137.613 149.973 137.861 150.01 138.024C150.038 138.187 150.049 138.274 150.039 138.276Z" fill="#263238"/>
<path opacity="0.5" d="M110.26 98.7876L123.391 115.437H184.345V110.95H123.806L110.26 98.7876Z" fill="black"/>
<path d="M169.702 155.298C169.626 155.298 169.565 145.336 169.565 133.051C169.565 120.761 169.626 110.802 169.702 110.802C169.779 110.802 169.84 120.761 169.84 133.051C169.84 145.336 169.779 155.298 169.702 155.298Z" fill="#263238"/>
<path d="M181.361 142.314H174.816V149.713H181.361V142.314Z" fill="#F5F5F5"/>
<path d="M110.091 98.1577L94.8464 110.95H110.091V98.1577Z" fill="#C6C6C6"/>
<g opacity="0.4">
<path d="M110.091 98.1577L94.8464 110.95H110.091V98.1577Z" fill="black"/>
</g>
<path d="M186.536 155.429H101.162V221.277H186.536V155.429Z" fill="#C6C6C6"/>
<path opacity="0.3" d="M186.536 155.429H101.162V221.277H186.536V155.429Z" fill="black"/>
<path d="M165.146 220.812C165.07 220.812 165.008 206.134 165.008 188.033C165.008 169.925 165.07 155.251 165.146 155.251C165.222 155.251 165.284 169.925 165.284 188.033C165.284 206.134 165.222 220.812 165.146 220.812Z" fill="#263238"/>
<path d="M179.297 206.289H172.752V213.687H179.297V206.289Z" fill="#F5F5F5"/>
<path d="M136.904 155.598H127.207V169.649H136.904V155.598Z" fill="#263238"/>
<path d="M136.904 207.03H127.207V221.081H136.904V207.03Z" fill="#263238"/>
<path d="M185.791 155.429C185.791 155.434 185.717 155.439 185.573 155.444C185.415 155.447 185.203 155.452 184.931 155.457C184.353 155.463 183.525 155.472 182.466 155.483C180.31 155.494 177.215 155.509 173.397 155.527C165.727 155.537 155.155 155.551 143.478 155.566C131.797 155.551 121.224 155.537 113.554 155.527C109.736 155.508 106.642 155.493 104.486 155.483C103.427 155.472 102.599 155.464 102.021 155.457C101.75 155.452 101.537 155.447 101.379 155.444C101.235 155.439 101.161 155.434 101.161 155.429C101.161 155.425 101.235 155.42 101.379 155.415C101.537 155.412 101.749 155.407 102.021 155.401C102.599 155.395 103.427 155.386 104.486 155.375C106.641 155.365 109.736 155.35 113.554 155.331C121.224 155.321 131.797 155.306 143.478 155.291C155.155 155.306 165.727 155.321 173.397 155.331C177.215 155.35 180.31 155.365 182.466 155.375C183.525 155.386 184.353 155.395 184.931 155.401C185.203 155.407 185.415 155.412 185.573 155.415C185.718 155.42 185.791 155.425 185.791 155.429Z" fill="#263238"/>
<path d="M39.478 41.4206C38.8637 41.2697 35.9054 40.5425 30.1816 39.1365L30.2499 39.1259C28.2057 40.4297 25.436 41.482 22.2251 41.5318C20.6279 41.526 18.9385 41.3337 17.2523 40.8057C15.5676 40.2809 13.9116 39.4103 12.4065 38.2367C9.39477 35.907 7.04976 32.1734 6.54347 27.8758C6.28503 25.7411 6.45821 23.4967 7.12231 21.3481C7.79859 19.2049 8.96581 17.1745 10.5376 15.465C11.3347 14.5615 12.2726 13.8121 13.23 13.1189C13.7326 12.8085 14.2283 12.486 14.7463 12.2133L15.5369 11.8325L15.9309 11.6429L16.3403 11.493C18.5063 10.6531 20.8116 10.3279 23.0242 10.4752C25.2395 10.6176 27.361 11.2372 29.2167 12.2138C31.0756 13.1883 32.6691 14.5112 33.92 16.0131C35.1741 17.5155 36.086 19.1954 36.6659 20.8911C37.2453 22.589 37.5095 24.2969 37.5249 25.9105C37.544 29.1521 36.5309 31.933 35.298 33.9635L35.299 33.8798C37.884 38.5439 39.1899 40.9005 39.478 41.4206C39.1799 40.9064 37.8283 38.5751 35.1539 33.9619L35.1296 33.92L35.155 33.8777C36.3566 31.8578 37.3364 29.1071 37.2998 25.9121C37.276 24.3218 37.0075 22.6414 36.4308 20.9737C35.8535 19.3076 34.9511 17.6601 33.7134 16.1873C32.4795 14.7151 30.9109 13.4202 29.0838 12.468C27.2599 11.5142 25.1781 10.9105 23.0052 10.7739C20.8344 10.633 18.5746 10.9539 16.4521 11.779L16.0506 11.9262L15.6646 12.1121L14.8898 12.4855C14.3819 12.7529 13.8968 13.0696 13.4038 13.3736C12.4659 14.0536 11.546 14.7881 10.7648 15.6736C9.22372 17.3498 8.07928 19.3394 7.41464 21.4392C6.76219 23.5443 6.59007 25.7458 6.84057 27.8398C7.33097 32.0543 9.62197 35.7233 12.5744 38.0222C14.0498 39.1799 15.6746 40.0415 17.3296 40.5642C18.9861 41.0901 20.648 41.2866 22.2219 41.3009C25.3857 41.2681 28.1242 40.2491 30.1567 38.9765L30.189 38.9564L30.2251 38.9659C35.9224 40.4774 38.8674 41.2585 39.478 41.4206Z" fill="#263238"/>
<path d="M20.7008 19.0895L21.1922 26.8549C21.2325 27.4898 21.7398 27.9951 22.3748 28.0332C23.0447 28.0729 23.6283 27.5809 23.702 26.9137L24.5641 19.1091C24.6293 18.5181 24.1622 18.0039 23.5674 18.0118L21.6731 18.0383C21.1086 18.0462 20.6648 18.5255 20.7008 19.0895Z" fill="#C6C6C6"/>
<path d="M24.4334 32.4012C24.1034 33.3947 23.031 33.9327 22.0375 33.6028C21.044 33.2729 20.5059 32.2004 20.8359 31.2069C21.1658 30.2134 22.2382 29.6754 23.2317 30.0053C24.2252 30.3347 24.7633 31.4077 24.4334 32.4012Z" fill="#C6C6C6"/>
</svg>
