<svg width="18" height="18" viewBox="0 0 18 18" fill="none" xmlns="http://www.w3.org/2000/svg">
<path d="M16 4.83398V9.00065M1 4.83398V13.3015C1 14.454 2.62167 15.139 5.86417 16.5082C7.16667 17.059 7.81833 17.334 8.5 17.334V8.46315M11 14.834C11 14.834 11.7292 14.834 12.4583 16.5007C12.4583 16.5007 14.775 12.334 16.8333 11.5007" stroke="#429539" stroke-width="1.25" stroke-linecap="round" stroke-linejoin="round"/>
<path d="M3.5 9.00033L5.16667 9.83366M12.6667 2.33366L4.33333 6.50033M5.43833 7.07616L3.00417 5.89866C1.66833 5.25199 1 4.92866 1 4.41699C1 3.90533 1.66833 3.58199 3.00417 2.93533L5.4375 1.75783C6.94167 1.03033 7.69167 0.666992 8.5 0.666992C9.30833 0.666992 10.0592 1.03033 11.5617 1.75783L13.9958 2.93533C15.3317 3.58199 16 3.90533 16 4.41699C16 4.92866 15.3317 5.25199 13.9958 5.89866L11.5625 7.07616C10.0583 7.80366 9.30833 8.16699 8.5 8.16699C7.69167 8.16699 6.94083 7.80366 5.43833 7.07616Z" stroke="#429539" stroke-width="1.25" stroke-linecap="round" stroke-linejoin="round"/>
</svg>
