<svg width="19" height="16" viewBox="0 0 19 16" fill="none" xmlns="http://www.w3.org/2000/svg">
<path d="M12.8333 11.1337V3.20866C12.8333 2.76663 12.6577 2.34271 12.3451 2.03015C12.0326 1.71759 11.6087 1.54199 11.1666 1.54199H2.83329C2.39127 1.54199 1.96734 1.71759 1.65478 2.03015C1.34222 2.34271 1.16663 2.76663 1.16663 3.20866V10.7087C1.16663 10.9297 1.25442 11.1416 1.4107 11.2979C1.56698 11.4542 1.77895 11.542 1.99996 11.542H2.59163C2.75407 11.1711 3.02107 10.8556 3.35999 10.634C3.69891 10.4124 4.09505 10.2944 4.49996 10.2944C4.90487 10.2944 5.30101 10.4124 5.63993 10.634C5.97884 10.8556 6.24585 11.1711 6.40829 11.542H12.5916C12.6527 11.3948 12.7333 11.2587 12.8333 11.1337ZM12.8333 11.1337C13.0499 10.8399 13.3401 10.6085 13.6747 10.4627C14.0092 10.3169 14.3763 10.262 14.7389 10.3034C15.1015 10.3448 15.4468 10.4811 15.7399 10.6986C16.033 10.916 16.2635 11.207 16.4083 11.542H17.8333V9.13366C17.8336 8.52894 17.6694 7.93554 17.3583 7.41699L16.3333 5.70866L15.575 4.45033C15.5012 4.32593 15.3963 4.22287 15.2707 4.15127C15.145 4.07968 15.0029 4.04202 14.8583 4.04199H12.8333V11.1337Z" stroke="#429539" stroke-width="1.5" stroke-linecap="round" stroke-linejoin="round"/>
<path d="M8.66662 7.375H4.49996M8.66662 4.875H4.49996M6.58329 12.375C6.58366 12.6849 6.51487 12.991 6.38195 13.271C6.24902 13.551 6.05531 13.7977 5.81493 13.9934C5.57455 14.189 5.29355 14.3285 4.99241 14.4017C4.69127 14.475 4.37758 14.4802 4.0742 14.4168C3.77083 14.3535 3.4854 14.2233 3.23873 14.0356C2.99205 13.848 2.79035 13.6077 2.64831 13.3323C2.50627 13.0568 2.42747 12.7531 2.41767 12.4434C2.40786 12.1336 2.46729 11.8256 2.59162 11.5417C2.78346 11.1036 3.12014 10.745 3.54515 10.5258C3.97016 10.3066 4.45762 10.2404 4.92571 10.3381C5.39381 10.4358 5.81404 10.6916 6.11586 11.0625C6.41768 11.4334 6.58273 11.8968 6.58329 12.375ZM16.5833 12.375C16.5837 12.6849 16.5149 12.991 16.3819 13.271C16.249 13.551 16.0553 13.7977 15.8149 13.9934C15.5745 14.189 15.2935 14.3285 14.9924 14.4017C14.6913 14.475 14.3776 14.4802 14.0742 14.4168C13.7708 14.3535 13.4854 14.2233 13.2387 14.0356C12.9921 13.848 12.7903 13.6077 12.6483 13.3323C12.5063 13.0568 12.4275 12.7531 12.4177 12.4434C12.4079 12.1336 12.4673 11.8256 12.5916 11.5417C12.6527 11.3944 12.7333 11.2583 12.8333 11.1333C13.0499 10.8396 13.3401 10.6081 13.6747 10.4624C14.0092 10.3166 14.3763 10.2616 14.7389 10.303C15.1015 10.3445 15.4468 10.4808 15.7399 10.6982C16.033 10.9157 16.2635 11.2066 16.4083 11.5417C16.525 11.8042 16.585 12.0883 16.5833 12.375Z" stroke="#429539" stroke-width="1.5" stroke-linecap="round" stroke-linejoin="round"/>
</svg>
