<svg width="19" height="18" viewBox="0 0 19 18" fill="none" xmlns="http://www.w3.org/2000/svg">
<path fill-rule="evenodd" clip-rule="evenodd" d="M9.49996 0.0419922C8.99579 0.0419922 8.53163 0.166992 8.02413 0.376992C7.53329 0.580325 6.96329 0.879492 6.25413 1.25199L4.53079 2.15616C3.65996 2.61283 2.96413 2.97866 2.42496 3.33783C1.86829 3.71033 1.43829 4.10199 1.12579 4.63283C0.814126 5.16199 0.674126 5.73533 0.606626 6.41783C0.541626 7.08033 0.541626 7.89449 0.541626 8.91949V9.08116C0.541626 10.1062 0.541626 10.9203 0.606626 11.5828C0.674126 12.2662 0.814959 12.8387 1.12579 13.3678C1.43829 13.8987 1.86746 14.2903 2.42579 14.6628C2.96329 15.022 3.65996 15.3878 4.53079 15.8445L6.25413 16.7487C6.96329 17.1212 7.53329 17.4203 8.02413 17.6237C8.53246 17.8337 8.99579 17.9587 9.49996 17.9587C10.0041 17.9587 10.4683 17.8337 10.9758 17.6237C11.4666 17.4203 12.0366 17.1212 12.7458 16.7487L14.4691 15.8453C15.34 15.3878 16.0358 15.022 16.5741 14.6628C17.1325 14.2903 17.5616 13.8987 17.8741 13.3678C18.1858 12.8387 18.3258 12.2653 18.3933 11.5828C18.4583 10.9203 18.4583 10.1062 18.4583 9.08199V8.91866C18.4583 7.89449 18.4583 7.08033 18.3933 6.41783C18.3258 5.73449 18.185 5.16199 17.8741 4.63283C17.5616 4.10199 17.1325 3.71033 16.5741 3.33783C16.0366 2.97866 15.34 2.61283 14.4691 2.15616L12.7458 1.25199C12.0366 0.879492 11.4666 0.580325 10.9758 0.376992C10.4675 0.166992 10.0041 0.0419922 9.49996 0.0419922ZM6.80829 2.37199C7.54996 1.98283 8.06996 1.71116 8.50163 1.53283C8.92163 1.35866 9.21746 1.29199 9.49996 1.29199C9.78329 1.29199 10.0783 1.35866 10.4983 1.53283C10.93 1.71116 11.4491 1.98283 12.1908 2.37199L13.8575 3.24699C14.7658 3.72283 15.4033 4.05866 15.8808 4.37699C16.1158 4.53449 16.3 4.68033 16.45 4.82699L13.6741 6.21449L6.59079 2.48616L6.80829 2.37199ZM5.28746 3.17033L5.14246 3.24699C4.23413 3.72283 3.59663 4.05866 3.11996 4.37699C2.91672 4.50906 2.72618 4.6597 2.55079 4.82699L9.49996 8.30199L12.2975 6.90199L5.45913 3.30366C5.39499 3.2689 5.337 3.22386 5.28746 3.17033ZM1.94829 5.92283C1.90663 6.10116 1.87413 6.30366 1.85079 6.53949C1.79246 7.13449 1.79163 7.88699 1.79163 8.95116V9.04866C1.79163 10.1137 1.79163 10.8662 1.85079 11.4603C1.90829 12.0412 2.01746 12.417 2.20329 12.7337C2.38829 13.0478 2.65579 13.3137 3.11996 13.6237C3.59663 13.942 4.23413 14.2778 5.14246 14.7537L6.80913 15.6287C7.55079 16.0178 8.06996 16.2895 8.50163 16.4678C8.63718 16.5239 8.76163 16.5698 8.87496 16.6053V9.38616L1.94829 5.92283ZM10.125 16.6045C10.2383 16.5695 10.3627 16.5239 10.4983 16.4678C10.93 16.2895 11.4491 16.0178 12.1908 15.6287L13.8575 14.7537C14.7658 14.277 15.4033 13.942 15.8808 13.6237C16.3441 13.3137 16.6116 13.0478 16.7975 12.7337C16.9833 12.417 17.0916 12.042 17.1491 11.4603C17.2075 10.8662 17.2083 10.1137 17.2083 9.04949V8.95199C17.2083 7.88699 17.2083 7.13449 17.1491 6.54033C17.1295 6.33294 17.0969 6.12698 17.0516 5.92366L14.2916 7.30283V9.83366C14.2916 9.99942 14.2258 10.1584 14.1086 10.2756C13.9914 10.3928 13.8324 10.4587 13.6666 10.4587C13.5009 10.4587 13.3419 10.3928 13.2247 10.2756C13.1075 10.1584 13.0416 9.99942 13.0416 9.83366V7.92866L10.125 9.38699V16.6045Z" fill="#429539"/>
</svg>
