<svg width="24" height="25" viewBox="0 0 24 25" fill="none" xmlns="http://www.w3.org/2000/svg">
<path d="M21 8L17 10M17 10L16.5 10.25L12 12.5M17 10V13.5M17 10L7.5 5M12 12.5L3 8M12 12.5V22M15.578 3.882L17.578 4.932C19.729 6.061 20.805 6.625 21.403 7.64C22 8.654 22 9.917 22 12.442V12.559C22 15.083 22 16.346 21.403 17.36C20.805 18.375 19.729 18.94 17.578 20.069L15.578 21.118C13.822 22.039 12.944 22.5 12 22.5C11.056 22.5 10.178 22.04 8.422 21.118L6.422 20.068C4.271 18.939 3.195 18.375 2.597 17.36C2 16.346 2 15.083 2 12.56V12.443C2 9.918 2 8.655 2.597 7.641C3.195 6.626 4.271 6.061 6.422 4.933L8.422 3.883C10.178 2.961 11.056 2.5 12 2.5C12.944 2.5 13.822 2.96 15.578 3.882Z" stroke="#429539" stroke-width="1.5" stroke-linecap="round"/>
</svg>
