<svg width="132" height="135" viewBox="0 0 132 135" fill="none" xmlns="http://www.w3.org/2000/svg">
<path d="M130.165 73.6265C131.406 75.5497 132 77.7034 132 79.8353C132 83.6924 130.055 87.4727 126.505 89.6374C123.066 91.7363 121.022 95.4616 121.022 99.4178C121.022 99.8902 121.055 100.363 121.11 100.846C121.176 101.33 121.198 101.813 121.198 102.286C121.198 108.088 116.802 113.088 110.868 113.682C108.626 113.901 106.549 114.78 104.857 116.132C103.165 117.484 101.857 119.308 101.143 121.451C99.5276 126.253 95.0551 129.264 90.2746 129.264C88.967 129.264 87.6375 129.044 86.3406 128.572C85.7032 128.341 85.0547 128.165 84.3956 128.055C83.7363 127.934 83.0769 127.88 82.4176 127.88C79.3846 127.88 76.4067 129.088 74.2089 131.341C71.9672 133.649 68.9782 134.802 66 134.802C63.0222 134.802 60.033 133.649 57.7913 131.341C55.5935 129.088 52.6154 127.88 49.5824 127.88C48.2637 127.88 46.9342 128.11 45.6592 128.572C44.3624 129.044 43.0328 129.264 41.7252 129.264C36.9447 129.264 32.4722 126.253 30.857 121.451C30.1427 119.308 28.8351 117.484 27.1428 116.132C25.4504 114.78 23.3735 113.901 21.1318 113.682C15.1977 113.088 10.8021 108.088 10.8021 102.286C10.8021 101.813 10.8241 101.33 10.89 100.846C10.945 100.363 10.978 99.8902 10.978 99.4178C10.978 95.4618 8.93392 91.7365 5.49462 89.6374C1.94515 87.4727 0 83.6924 0 79.8353C0 77.7034 0.593629 75.5495 1.83516 73.6265C3.06599 71.7255 3.67034 69.5716 3.67034 67.3958C3.67034 65.242 3.06599 63.0661 1.83516 61.1762C0.593629 59.253 0 57.0991 0 54.9674C0 51.1103 1.94515 47.3411 5.49462 45.1761C8.93411 43.0771 10.978 39.3409 10.978 35.3849C10.978 34.9125 10.9451 34.4399 10.89 33.9564C10.8241 33.4728 10.8021 32.9893 10.8021 32.5169C10.8021 26.7147 15.1977 21.7146 21.1318 21.1211C23.3735 20.8903 25.4504 20.0223 27.1428 18.6706C28.8351 17.3297 30.1427 15.5058 30.857 13.3629C32.4722 8.56061 36.9558 5.53872 41.7361 5.53872C43.0439 5.53872 44.3624 5.7585 45.6592 6.2309C46.934 6.7033 48.2635 6.92326 49.5824 6.92326C52.6154 6.92326 55.5935 5.7144 57.7913 3.46163C60.0328 1.15388 63.022 0 66 0C68.9782 0 71.9672 1.15388 74.2089 3.46163C77.3625 6.69241 82.11 7.78041 86.3408 6.2309C87.6376 5.7585 88.9561 5.53872 90.2639 5.53872C95.0442 5.53872 99.5278 8.56061 101.143 13.3629C101.857 15.5058 103.165 17.3297 104.857 18.6706C106.55 20.0221 108.627 20.8903 110.868 21.1211C116.803 21.7146 121.198 26.7147 121.198 32.5169C121.198 32.9893 121.176 33.4728 121.11 33.9564C121.055 34.4399 121.022 34.9125 121.022 35.3849C121.022 39.3411 123.066 43.0771 126.505 45.1761C130.055 47.3409 132 51.1101 132 54.9674C132 57.0991 131.407 59.2532 130.165 61.1762C128.934 63.0661 128.33 65.2421 128.33 67.3958C128.33 68.5936 128.517 69.7914 128.89 70.9453C129.187 71.8792 129.615 72.7804 130.165 73.6265Z" fill="#429539"/>
<path d="M99.9407 42.0021C97.1511 39.2129 92.6288 39.2129 89.8392 42.0021L54.1901 77.6516L40.534 63.9958C37.7444 61.2068 33.2214 61.2068 30.4324 63.9958C27.643 66.7854 27.643 71.3077 30.4324 74.0973L49.1393 92.8038C50.5342 94.1983 52.3619 94.8959 54.1901 94.8959C56.0181 94.8959 57.846 94.1983 59.2407 92.8038L99.9407 52.1037C102.73 49.3139 102.73 44.7918 99.9407 42.0021Z" fill="white"/>
</svg>
