<svg width="24" height="25" viewBox="0 0 24 25" fill="none" xmlns="http://www.w3.org/2000/svg">
<path d="M17 11.3049C17 10.9589 17 10.7859 17.052 10.6319C17.203 10.1839 17.602 10.0109 18.002 9.82888C18.45 9.62388 18.674 9.52188 18.897 9.50388C19.149 9.48388 19.402 9.53788 19.618 9.65888C19.904 9.81888 20.104 10.1249 20.308 10.3729C21.251 11.5189 21.723 12.0919 21.895 12.7229C22.035 13.2329 22.035 13.7669 21.895 14.2759C21.644 15.1979 20.849 15.9699 20.26 16.6859C19.959 17.0509 19.808 17.2339 19.618 17.3409C19.3983 17.4627 19.1474 17.5167 18.897 17.4959C18.674 17.4779 18.45 17.3759 18.001 17.1709C17.601 16.9889 17.203 16.8159 17.052 16.3679C17 16.2139 17 16.0409 17 15.6949V11.3049ZM7.00003 11.3049C7.00003 10.8689 6.98803 10.4779 6.63603 10.1719C6.50803 10.0609 6.33803 9.98388 5.99903 9.82888C5.55003 9.62488 5.32603 9.52188 5.10303 9.50388C4.43603 9.44988 4.07703 9.90588 3.69303 10.3739C2.74903 11.5189 2.27703 12.0919 2.10403 12.7239C1.96483 13.2322 1.96483 13.7686 2.10403 14.2769C2.35603 15.1979 3.15203 15.9709 3.74003 16.6859C4.11103 17.1359 4.46603 17.5469 5.10303 17.4959C5.32603 17.4779 5.55003 17.3759 5.99903 17.1709C6.33903 17.0169 6.50803 16.9389 6.63603 16.8279C6.98803 16.5219 7.00003 16.1309 7.00003 15.6959V11.3049Z" stroke="#429539" stroke-width="1.5" stroke-linecap="round" stroke-linejoin="round"/>
<path d="M5 9.5C5 6.186 8.134 3.5 12 3.5C15.866 3.5 19 6.186 19 9.5M19 17.5V18.3C19 20.067 17.21 21.5 15 21.5H13" stroke="#429539" stroke-width="1.5" stroke-linecap="round" stroke-linejoin="round"/>
</svg>
